<svg xmlns="http://www.w3.org/2000/svg" xmlns:xlink="http://www.w3.org/1999/xlink" width="304.582" height="281.707" viewBox="0 0 304.582 281.707">
  <defs>
    <clipPath id="clip-path">
      <rect id="Rectangle_98" data-name="Rectangle 98" width="304.582" height="281.707" fill="none"/>
    </clipPath>
    <clipPath id="clip-path-3">
      <rect id="Rectangle_87" data-name="Rectangle 87" width="294.248" height="279.465" transform="translate(4.832)" fill="none"/>
    </clipPath>
    <clipPath id="clip-path-5">
      <path id="Path_679" data-name="Path 679" d="M150.932,59.482C135.415,61.92,127.417,71.015,128.3,79.451c0,0-.073,5.793-.065,13.145,7.5-3.231,27.219-12.227,39.771-22.466,0,0,5.746,18.456,14.472,23.225-.192-6.328-.416-12.273-.5-16.124-.2-9.509-12.428-18.133-26.093-18.134a31.893,31.893,0,0,0-4.954.385" fill="none"/>
    </clipPath>
    <clipPath id="clip-path-7">
      <path id="Path_684" data-name="Path 684" d="M170.4,135.636l-.014,1.007s0,8.046-6.03,20.867-6.29,25.643-2.267,35.2,14.836,13.33,26.423,9.056,13.073-23.384,11.818-34.951-12.551-25.141-15.086-31.932-4.275-10.3-4.275-10.3-6.54,9.05-10.569,11.058" fill="none"/>
    </clipPath>
  </defs>
  <g id="Group_48" data-name="Group 48" clip-path="url(#clip-path)">
    <g id="Group_37" data-name="Group 37">
      <g id="Group_36" data-name="Group 36" clip-path="url(#clip-path)">
        <path id="Path_482" data-name="Path 482" d="M97.06,17.2S47.009,42.716,22.046,82a108.427,108.427,0,0,0,7.345,127.344c30.333,37.507,88.311,32.592,136.856,56.36s102.1,18.879,125.058-31.483-11.659-69.168-17.6-127.43S215.222-36.834,97.06,17.2" fill="#2983c7"/>
        <g id="Group_35" data-name="Group 35" opacity="0.7" style="isolation: isolate">
          <g id="Group_34" data-name="Group 34">
            <g id="Group_33" data-name="Group 33" clip-path="url(#clip-path-3)">
              <path id="Path_483" data-name="Path 483" d="M97.06,17.2S47.009,42.716,22.046,82a108.427,108.427,0,0,0,7.345,127.344c30.333,37.507,88.311,32.592,136.856,56.36s102.1,18.879,125.058-31.483-11.659-69.168-17.6-127.43S215.222-36.834,97.06,17.2" fill="#fff"/>
            </g>
          </g>
        </g>
        <path id="Path_484" data-name="Path 484" d="M150.811,103.633c.324-.046.357-1.7.172-1.724C150.322,101.85,150.071,103.746,150.811,103.633Z" fill="none" stroke="#6d6d6d" stroke-miterlimit="10" stroke-width="1"/>
        <path id="Path_485" data-name="Path 485" d="M80.672,127.671c.542-.2,4.036.535,4.036-.575,0-.713-3.593-1.651-4.036-1.321a2.059,2.059,0,0,0,.561,1.268c0,.35-1.513-.04-1.645.33a.8.8,0,0,0,1.083.3Z" fill="none" stroke="#6d6d6d" stroke-miterlimit="10" stroke-width="1"/>
        <path id="Path_486" data-name="Path 486" d="M112.373,149.523c-1.466.079-2.88-1.8-4.485-2.028-1.427-.2-1.513-.35-2.768.165,1.4-.575-2.259-2.266-2.279-2.272-.614-.165-1.242,1.5-1.8,1.262.112.046.661-1.321.1-1.836s-1.559.727-1.612.694c.092.053,1.566-3.686-.231-4.664-1.731-1.136-3.151-.925-4.723-1.711-1.466-.74-1.6-2.556-3.66-2.424.839-.053-1.625-2.2-.945-1.929-1.1-.436-3.217.489-4.624.172-.561-.119-.925-1.559-1.737-1.559-1.242,0-.9,2.226-1.1,2.642-.575,1.262-.806-3.3-.225-2.933-.416-.264-3.3,1.744-3.627,1.982-.661.489-.912,1.44-1.585,1.638,1.136-.337-3.633-.865-2.642-.489-3.019-1.149-1.638-1.539-2.457-4.2-.238-.753.548-1.11-.092-1.8s-3.184-.793-3.963-.291c-.555.3.073-2.087.317-2.338.984-1,1.321-3.3-.225-3.356-2.53-.066-1.282,2.173-2.854,2.953-4.73,2.352-4.941-4.3-4.789-7.094a1.093,1.093,0,0,0-.185-.106,1.093,1.093,0,0,1,.185.106c.258-4.921,3.8-3.587,6.764-3.243-.779-.092-.119-1.268.779-1.321a7,7,0,0,1,2.437.535c1.493.443,1.116,0,2.226,1.883.436.753.608,2.642,1.585,2.953.086,0-.053-6.883.509-7.709.707-1.044,2.4-2.338,2.933-3.025,1.222-1.566.046.2.2-1.618,0-.192-.489-2.781.343-2.781-.324,0,.284,2.431.251,2.451.832-.575.291-1.42.33-2.074,0-.522,2.7-1.414,2.913-1.889.092-.2-1.288,0-1.288-.04,0-.7,2.167-.581,2.484-.8a6.469,6.469,0,0,1,.918-2.523c.978-1.011,3.415-.786,4.168-2.332-.092.192.324.958.846.806-1.922.561-2.84,1.585-.535,1.242a11.108,11.108,0,0,0,3.838-1.982c.053-.04-.4-.608-.337-1a4.066,4.066,0,0,1-1.784,1.321c-2.246-.41-1.176-1.916-2.048-2.5a1.464,1.464,0,0,1-.746.139c-.238-.806,2.715-1.414-.126-1.784-1.982-.258-2.94,2.6-4.287,2.6.661,0,3.64-3.62,5.047-3.963.561-.185,8.488-.76,7.828-2.51a5.671,5.671,0,0,0-.561-.284c-.548-.509,1.433-1.011-.766-1.268a2.7,2.7,0,0,1-.059-.733,11.08,11.08,0,0,0-2.431.766c-.172-.806,2.054-.9,2.305-1.321,0,.033-4.763-2.279-4.333-2.847.879-1.136.872.132.3-1.632-.159-.482-2.279-3.455-2.127-3.594-1.03.931-.449,3.052-2.246,3.058-1.982,0-1.79-2.272-1.79-3.574,0-.575-4.921-2.041-5.285-2.028-2.781.073-1.638.251-1.81,2.457-.033.377-.443,1.942-.4,2.167.33,1.711,1.744,2.259.879,4.452-.264.661-1.843.852-1.982,1.242-.152.522.614,1.05.5,1.671a21.276,21.276,0,0,1,.1,2.537c-1.05-.5-.588.482-1.764-.568-1.321-1.182-.4-2.893-1.176-3.792a50.142,50.142,0,0,0-4.994-2.206,5.325,5.325,0,0,0-3.7-.581c.337-.053-.317-1.982-.462-2.2-.832-1.414-1.731.159-1.229-2.642.126-.7,3.257-4.062,3.3-3.963,0-.139-2.563-1.1-2.543-1.143.357-.852,2.53,1.519,3.124-.271-.271.826,3.442-.806,2.517-1.473-.39-.277-2.57,0-2.437-1.024-.086.661,4.67.925,2.781-.76-.066-.059,1.731,0,2.094,0,.251,0-.661-.872-.6-.958.271-.271,1.222,1.321,2.471-.066.964-1.077-.5-1.189-.561-2.233,0-.119,1.486-.522.991-1.268a4.23,4.23,0,0,0-3.015-1.041c-.456.145.165,2.365-1.07,3.085a1.558,1.558,0,0,1-.37-.575c-.522.033.469,1.929-.2,1.618s-.727-1.658-.832-1.75c-.264-.231-.614-1.083-1.057-1.48s-.865,1.473-1.037,1.506c-.661.119.086-1.618.132-1.7.3-.568-1.605-.383-1.572-.35-.608-.528.416-.819.522-.984-.132.211-1.466-2.173-1.466-2.16-.879-1.982-.284,0-.509-2.253.106,1.05,4.082-1.75,2.7-2.206s-3.409-.608-3.719.509c-.172.661-.073,3.171-.33,4.181-.086.324-1.169.846-.793,2.134.152.5,3.045,1.156,1.684,2.259a.535.535,0,0,1,.561-.5c.04.086-1.48,2.867-1.321,2.748a20.68,20.68,0,0,1-1.744-1.784c-.079-.145,1.935-.456,2.041-.555.779-.76-1.143-.746-1.143-.859,0-.218,1.03-.086.661-.37a2.28,2.28,0,0,0-3.191.455q-.034.045-.066.093c-.357.476,2.834,1.691-1,2.186-1.75.225-2.464-.661-3.963-1.011-.443-.106-.423-.568-1.222-.661-.277,0-2.18.806-1.6,1.07.423.185,1.982-.885,2.239-.614-1.03-1.13-1.222,3.184-1.889,2.834-.3-.159-.112-1.2-1.017-1.493-1.242-.416-4.056.865-4.981-.152-.449-.489,1.182-.608,1.057-.9-.456-1.057-3.045-1.13-3.963-1.354a22.647,22.647,0,0,0-2.457-.839c-1.011-.106-1.394.614-2.332.614-.139,0,.192-1.255-.244-1.321a5.152,5.152,0,0,1-1.136,1.321c-.9-.066-.779-2.272-1.85-2.107.727-.112-1.526,1.6-1.374,1.513a29.973,29.973,0,0,1-2.966,1.658c-.561-.033,3.164-2.319,3.158-2.233.04-.449-3.224.931-3.587,1.13s0-.575-.661-.35c-1.559.561-.449,1.044-.826,1.453.152-.159-9.638-2.305-10.285-2.358-.958-.079-6.91-.753-7.266-1.163-.661-.713-2.358.046-3.138.9C6.656,65.669,2,66.719,1.795,67.73c-.476,2.12,4.472,2.517,4.849,3.673,0,.092-5.569-.211-6.183,1.255.211-.5,1.559,1.605,1.7,1.658.661.238,4.043-.489,4.056-.469.951.945-1.116,2.226-1.625,2.7-.614.568-.661-.35-1.4.614A11.992,11.992,0,0,1,1.8,78.291c.159-.145,1.123,2.015,1.156,2.041.588.515,2.391.509,2.18.3.568.568-.053,1.757.476,2.035.357.192,1.592.04,2.272.317-.608-.244,1.869-1.077,1.724-.661-.337,1.017-4.4,5.945-4.994,5.285.713.786,8.039-4.162,8.039-5.331a1.988,1.988,0,0,0-.661-.37c-.165-.416,3.963-3.851,3.818-2.517,0-.139-2.464,1.883-1.9,2.4a16.762,16.762,0,0,0,3.3-.951c.4-.159-.991-1.394,0-1.572.337-.059,1.638.707,1.691.661a.457.457,0,0,0-.568.306.584.584,0,0,0-.013.057c.126.4,5.826.145,6.183.462-.172-.152,3.66,3.158,3.62,2.233A1.552,1.552,0,0,1,28,81.929c1.823,1.321-.852,1.691-.846,1.612,0,.092,1.387,2.048,1.321,2.068.258-.139-.357-1.77.059-1.618a1.318,1.318,0,0,1,.112.661c.462.6.542-1.321.482-1.189.1-.258.145,2.523-.145,2.484-.423-.059,2.424-.244,1.585.165.264-.132-1.037-.9-.317-.964,1.11-.092.238.938-.5,1a8.952,8.952,0,0,0,.132,1.618c.225.165,1.242-.793,1.757-.7s.423,1.982.707,2.378c.2.284,1.632,1.717,1.817,1.982a15.158,15.158,0,0,0,3,2.418c-.1-.079,3.752,3.171,1.632,3.171-.079,0-2.3-5.978-4.763-4.241.515-.363,3.3,3.646,3.494,4.162,1.03,2.959-.661,6.4.489,9.631.786,2.213,2.86,3.613,4.261,5.133a19.265,19.265,0,0,1,2.226,3.369c.984,1.665,1.2,2.087,1,3.039,0,.046,4.439,4.69,4.267,4.816.423-.3-4.4-9.01-4.261-9.03,1.744-.178,1.9,2.55,2.219,3.052.892,1.381,2.517,2.642,3.494,3.924,1.671,2.147,1.9,4.4,3.389,5.945a13.06,13.06,0,0,0,4.624,2.332c1.744.555,3.587.033,4.994,1.407.661.614,1.658.661,2.107,1.09,1.235,1.136,1.744.568,2.9,1.757.779.8,1,1.533,1.453,1.982.74.727,1.982,2.107,3.1,2.186s.76-1.229,1.321-1.1c2.484.588,2.035,3.917,1.03,5.945-1.083,2.213-2.471,2.6-1.248,4.829.086.159-1.209,2.259-1.083,2.913.238,1.242,3.012,4.921,3.66,6.209,1.242,2.444,2.827,2.7,4.584,4.69,1.605,1.823,1.1,3.3.819,5.787a102.647,102.647,0,0,1-1.282,10.747c-.31,1.407-2.979,8.733-1.982,10.14.456.661.661-1.843,1.083-1.982s-.271,5.463-.713,5.152c-.231-.165.258-1.817-.35-1.546.555-.244-1.136,2.332-1.143,2.358.066-.727.865.885.9,1.143.053.449.978-.3.931.357.066-.978-2.774,1.123-1.433.918a2.973,2.973,0,0,0,.608-.469c.2-.04-1.4,1.671-.33,1.843.211.033.324-1.1.621-.8.628.628-1.2,1.982-.766,2.5.086.106.978-.4,1.149-.046.053.112-.6.621-.5.661.357.132,1.169-.35,1.321.165s-1.585.04-.991.885c.225.317,1.638-1.024,1.9-.145-.073-.251-1.585.793-1.638.859a16.48,16.48,0,0,1,1.863-.429c.132.291-2.068,1.143-2.127.892.066.284,1.321,1.07,1.533.872.344-.35-.456-.178-.172-.548.2-.264,1.889-1.2,1.982-1.453a.971.971,0,0,0-.469.872,2.98,2.98,0,0,0,.766.04c-.211-.238-.509,1.11-.429,1.07a1.071,1.071,0,0,1-.35-.76c-.377-.165-.185.793-.238.753a.509.509,0,0,0-.614-.343c.31-.436-.383,1.321-.383.72,0-.337,1.07.984,1.044.958a1.979,1.979,0,0,0,.3-.713,19.7,19.7,0,0,0,1.777,1.229c.33.1-.238-.773-.046-.746a11.051,11.051,0,0,0,2.563-.528c-1.189-.436-2.642-2.55-2.867-2.642-.178-.046-.852.1-.753-.357s.733.159.9,0-.746-1.566-.555-1.982c.3-.661.819-.846,1.156-1.46.449-.819,1.559-1.447,1.625-2.358.059-.72-1.037-.733-.984-.938a11.482,11.482,0,0,1,1.533-3.765c.31-.4,1.367-1.433,1.361-1.44-.258-.218-2.279-.04-1.215-1.645-.337.5,2.411-.436,2.272-.357.377-.218-.053-1.486.139-1.691.938-1,4.393.449,4.783-2.213.086-.588-1.533-2.642-1.566-2.6.548-.575,3.1.661,4.512-.832.35-.37,2.1-3.468,2.094-3.375a6.319,6.319,0,0,1-.661,1.288c0-.614,2.054-2.312,2.319-3.025.383-1.017-.079-2.345.449-3.3,1.064-1.863,3.448-1.506,4.769-2.338,1.7-1.077,2.186-2.642,2.708-4.624.324-1.229,0-4.36.661-5.344C109.856,156.671,116.567,149.286,112.373,149.523Z" fill="none" stroke="#6d6d6d" stroke-miterlimit="10" stroke-width="1"/>
        <path id="Path_487" data-name="Path 487" d="M79.758,125.663c.971-1.321-10.008-3.686-8.634-1.684-.661-.958,4.38.324,4.624.456C76.57,124.9,78.565,127.268,79.758,125.663Z" fill="none" stroke="#6d6d6d" stroke-miterlimit="10" stroke-width="1"/>
        <path id="Path_488" data-name="Path 488" d="M76.259,127.467c.152.284,1.572.661,1.717.33S76.074,127.11,76.259,127.467Z" fill="none" stroke="#6d6d6d" stroke-miterlimit="10" stroke-width="1"/>
        <path id="Path_489" data-name="Path 489" d="M85.87,127.546c.33.575,1.321.231,1.381,0C87.4,127.137,85.533,126.978,85.87,127.546Z" fill="none" stroke="#6d6d6d" stroke-miterlimit="10" stroke-width="1"/>
        <path id="Path_490" data-name="Path 490" d="M91.215,198.266c.449.244,1.381-.984.971-1.064S90.785,198.035,91.215,198.266Z" fill="none" stroke="#6d6d6d" stroke-miterlimit="10" stroke-width="1"/>
        <path id="Path_491" data-name="Path 491" d="M92.311,198.352c.3.159,1.526-.4,1.381-.7C93.421,197.038,92.03,198.187,92.311,198.352Z" fill="none" stroke="#6d6d6d" stroke-miterlimit="10" stroke-width="1"/>
        <path id="Path_492" data-name="Path 492" d="M65.267,144.642c-.377.614.37,1.215.522.945S65.644,144.026,65.267,144.642Z" fill="none" stroke="#6d6d6d" stroke-miterlimit="10" stroke-width="1"/>
        <path id="Path_493" data-name="Path 493" d="M98.831,66.3c.079-1.48-2.186-.76-2.523-.661S98.725,68.108,98.831,66.3Z" fill="none" stroke="#6d6d6d" stroke-miterlimit="10" stroke-width="1"/>
        <path id="Path_494" data-name="Path 494" d="M124.223,65.288a34.954,34.954,0,0,1-3.627-.3c.086-.225,1.209-1.513,1.064-1.566.733.277,2.84,2.781,2.94.462.079-1.354-1.9-1.354-2.193-2.477-.086-.31,2.576.859,2.041-.793-.3-.938-2.913.661-2.807-.343-.04.35.9-1.229.74-1.05.832-.918,4.624,2.246,2.173-.931-.1-.126,2.2-.086,2.312-.555s-2.286-.4-1.744-1.321c.661-1.123,2.4.509,1.321-1.79.04.079-2.768-.879-2.338-1.321s3.726,0,3.6-.509c-.317-1.2-1.949.066-2.081-.964-.073-.535.991,0,1.149-.277.594-.938-2.576-.178-2.464-.092-.859-.661,3.514-4.736,3.64-4.565-.8-1.07-1.533.713-2.1.152s3.164-1.03,3.263-1.1c.317-.2-1.982-.661-2.094-.509.4-.661,5.787-.6,5.787-2.087,0-1.982-5.106-.079-5.674.106-.449.139-1.1-.443-1.407-.324-1.024.39-1.982,2.054-3.065,2.213,1.077-.159,2.3-2.761.542-3.072-.277-.046-3.25,2.147-3.435,1.486-.145-.522,1.79-.766,1.744-1.2-.092-.925-6.315.522-6.328.383-.092-1.262,8.667-.753,9.545-1.942.489-.661-11.137-2.537-12.187-2.266-.264.066-1.843.628-2.021.661a7.927,7.927,0,0,0-1.1-.059c-1.982.225-3.9.092-5.879.469-.244.046.859.786.846.852s-1.731.178-1.493.489a17.8,17.8,0,0,1,2.259,1.8c-1.394.3-3.963-2.887-5.351-1.856-.343.251,1.024,1.09,1.024,1.282,0,.766-2.8-.872-2.722-.872-.2,0-.126,1.671-.522,1.922,1.209-.753-1.493-1.817-1.916-1.856a2.261,2.261,0,0,0-2.226,1.281c-.628.218-1.552-.542-2.365-.211-.581.238.515,1.215-.291,1.658-.218.119-5.866.258-5.113,1.982.568,1.321,3.62-.059.912,2.153-.74.6-2.88.357-3.811.991-4.327,2.953,4,1,3.917,2.642,0,.185-4.419.192-4.333.6.112.6,3.091,1.982,3.884,2.054,1.605.152,3.144-1.05,5.285,0a8.3,8.3,0,0,1,4.333,4.855c.661,2.451-.9,2.761,1.671,2.761a14.5,14.5,0,0,0,2.193,2.358c-.093.073-2.867-1.1-2.867-.39,0,1.651,3.871.443,2.84,3.389-.159.436-1.381-.185-1.744.707a4.4,4.4,0,0,0-.436,1.889c-.059,1.189,1.724,5.285,3.039,7.108a6.064,6.064,0,0,0,3.177,2.345c2.338,1.05,1.8,1.182,3.118-.773.509-.766-.277-1.506-.073-2.1.106-.31,1.116-.3,1.268-.971.192-.859.073-2.279.185-2.642a1.714,1.714,0,0,1,.832.112c.112-.066,1.566-2.021,1.737-2.021a.613.613,0,0,1,.112.786c.284.892,3.62-2.081,3.686-2.134a8.67,8.67,0,0,1,2.226-1.486A70.465,70.465,0,0,0,124.223,65.288Z" fill="none" stroke="#6d6d6d" stroke-miterlimit="10" stroke-width="1"/>
        <path id="Path_495" data-name="Path 495" d="M39.057,55.069c.727-.4.727,0,1.275-.575a2.8,2.8,0,0,0,.595.74c.865,0,1.215-1.863,1.757-1.982s.165,1.651,1.414.443c.476-.456.37-.879.832-1.387a11.912,11.912,0,0,0-3.012.079C40.867,52.757,39.017,55.1,39.057,55.069Z" fill="none" stroke="#6d6d6d" stroke-miterlimit="10" stroke-width="1"/>
        <path id="Path_496" data-name="Path 496" d="M44.592,54.329c-1.248.1.661.912.621.713a2.767,2.767,0,0,0-1.447.423c-.225.317,1.248.2,1.09.258a2.756,2.756,0,0,0-1.5.535c.8,1.169,2.16.059,2.794-.337-.33.2,1.942.766,2.094.535-.218.324-2.352.621-2.319.964.119,1.11,4.261-.363,4.875-.661,2.054-.9,2.642-.172,1.691-1.982.086.145-2.219-1.447-2.583-1.255-1.07.555.661,1.665.4,2.054-.614,1.011-2.689-1.136-3.177-1.262A6.311,6.311,0,0,0,44.592,54.329Z" fill="none" stroke="#6d6d6d" stroke-miterlimit="10" stroke-width="1"/>
        <path id="Path_497" data-name="Path 497" d="M58.576,63.14c1.513,1.136,3.3-3.111,2.325-3.164a.713.713,0,0,0-.178.892c.106-.225-1.242-.661-1.215-.661-.291-.456,1.922-.872.489-1.843-1.064-.727-.938.621-.918.614.185-.092-3.184-.39-2.114.575a6.957,6.957,0,0,0,1.1.211c1.268,1.1-2.206.509-1.85.443C55.208,60.419,58.263,62.909,58.576,63.14Z" fill="none" stroke="#6d6d6d" stroke-miterlimit="10" stroke-width="1"/>
        <path id="Path_498" data-name="Path 498" d="M37.378,62.408a17.112,17.112,0,0,1,1.2,1.447c.912,0,1.869-1.321,2.319-1.665,1.176-.879,2.847-1.737,4.036-2.722.443-.363-5.423-2.048-6.19-1.81-2.457.773-.317.244-1.116,1.6-.251.416-1.572,2.6-1.407,2.8a3.071,3.071,0,0,0,1.163.35Z" fill="none" stroke="#6d6d6d" stroke-miterlimit="10" stroke-width="1"/>
        <path id="Path_499" data-name="Path 499" d="M41.864,55.683a1.3,1.3,0,0,0,1.321-.945C43.185,54.373,41.527,55.643,41.864,55.683Z" fill="none" stroke="#6d6d6d" stroke-miterlimit="10" stroke-width="1"/>
        <path id="Path_500" data-name="Path 500" d="M81.53,63.854a.714.714,0,0,0,.714-.712v-.028c.159.542-2.821-1.017-3.091-1.11-.661-.225-.244-.832-1.321-1.077-.733-.165-1.856.925-1.823.931-.991-.35-.575.073-1.7.073-.826,0,.568-4.525-3.019-2.358-2.167,1.321-.37,1.982-.271,3.382,0,.231-1.618-.482-1.552-1.533.059-.951,1.248-1.8,1.248-2.4,0-1.11-3.9,1.321-4.1,2.206-.258,1.163,1.42,3.488,2.107,2.576-.178.231-1.83-.218-1.784.218.238,2.385,8.832.9,9.017,1.381a.99.99,0,0,1-.436-.661c.119-.4,3.025,1.8,3.045,1.982a2.4,2.4,0,0,0-.826.779c.555.462,1.169-.469,2.094.489,1.044,1.083,1.024.859,1.275,2.5.053.343,3.158-.661,2.6.773s-1.387-.37-1.8-.238-1.473.172-2.041.343a2.736,2.736,0,0,0,.343,1.044c-.879.429-2.305.046-2.979.661-2.477,2.12,2.642.832,3.349,1.057s4.987,5.456,6.1,3.963c.277-.383-1.883-2.722-2.286-2.642,1.638-.476,4.043,2.233,3.184-.509-.383-1.222-3.3-2.167-2.021-3.693.528-.661,2.735,2.068,3.1,2.054,0,0,2.167-2.272,2.167-2.259,0-1.519-5.985-2.338-5.793-3.811a3.21,3.21,0,0,1,1.156-.284,1.921,1.921,0,0,0-.971-.535c-.1-.9.958-.859-.561-.859,1.1,0-1.526-1.2-1.625-1.235C82.725,64.224,81.53,63.854,81.53,63.854Z" fill="none" stroke="#6d6d6d" stroke-miterlimit="10" stroke-width="1"/>
        <path id="Path_501" data-name="Path 501" d="M30.132,88.89c-.694.4.865,2.312,1.282,2.028C31.539,90.825,31.152,88.295,30.132,88.89Z" fill="none" stroke="#6d6d6d" stroke-miterlimit="10" stroke-width="1"/>
        <path id="Path_502" data-name="Path 502" d="M54.949,56.5c.258-.33-.561-1.024-.786-.449S54.658,56.839,54.949,56.5Z" fill="none" stroke="#6d6d6d" stroke-miterlimit="10" stroke-width="1"/>
        <path id="Path_503" data-name="Path 503" d="M75.136,78.479c.264-.046.786-1.07.112-1.031S74.733,78.538,75.136,78.479Z" fill="none" stroke="#6d6d6d" stroke-miterlimit="10" stroke-width="1"/>
        <path id="Path_504" data-name="Path 504" d="M78.875,69.751c2.041-.377-1.982-1.85-1.321-1.281C78,68.828,76.418,70.2,78.875,69.751Z" fill="none" stroke="#6d6d6d" stroke-miterlimit="10" stroke-width="1"/>
        <path id="Path_505" data-name="Path 505" d="M71.834,77.575c.6.41,1.493-.694,1.42-1.024S71.127,77.069,71.834,77.575Z" fill="none" stroke="#6d6d6d" stroke-miterlimit="10" stroke-width="1"/>
        <path id="Path_506" data-name="Path 506" d="M64.667,56.588c.343,1.057,8.885,1.493,9.875.773,3.963-2.86-8.369-1.427-8.2-2.358A3.507,3.507,0,0,1,67,54.342c.3-.4-6.7-1.817-6.17-.984C62.3,55.6,63.683,53.48,64.667,56.588Z" fill="none" stroke="#6d6d6d" stroke-miterlimit="10" stroke-width="1"/>
        <path id="Path_507" data-name="Path 507" d="M56.072,65.766c.2-.258,1.156.528,1.2-.04,0-.4-2.847-2.431-3.1-3.078a15.369,15.369,0,0,1-.192-2.642c.337-.3.3-.661-.112-.958a1.546,1.546,0,0,0-1.645.41,5.076,5.076,0,0,1,1.044.984c0-.192-1.869-.865-2.054-.5-.264.528.852,2.444.5,2.642-.066,0-2.523-2.761-2.642-2.134a3.166,3.166,0,0,1,.661.779c0,.1-1.361.04-1.288.231-.984-2.6-1.8.515-2.689-.324-.092-.092,1.533-1.321-.383-1.321A4.879,4.879,0,0,0,42.485,61.5c-1.11,2.642,1.381.7,2.424,1.506.053.04-2.206.628-2.206.938,0,1.387,5.344-.139,5.344,1.03,0,.284-4.816,0-4.624.779.5,2.153,6.606,1.724,7.848,1.552a9.4,9.4,0,0,1,1.982-.271c.416,0,3.838,1.176,3.428-.218-.33-1.09-1.116.33-1.387-.41A3.03,3.03,0,0,1,56.072,65.766Z" fill="none" stroke="#6d6d6d" stroke-miterlimit="10" stroke-width="1"/>
        <path id="Path_508" data-name="Path 508" d="M88.222,93.977c.073.324,2.246,1.321,2.319.859S88.156,93.692,88.222,93.977Z" fill="none" stroke="#6d6d6d" stroke-miterlimit="10" stroke-width="1"/>
        <path id="Path_509" data-name="Path 509" d="M66.549,51.746c-.661-.37-1.519.41-.819.7C66.351,52.69,67.249,52.116,66.549,51.746Z" fill="none" stroke="#6d6d6d" stroke-miterlimit="10" stroke-width="1"/>
        <path id="Path_510" data-name="Path 510" d="M60.742,51.218c4.4,0-.793-2.451-1.083-1.982S60.227,51.218,60.742,51.218Z" fill="none" stroke="#6d6d6d" stroke-miterlimit="10" stroke-width="1"/>
        <path id="Path_511" data-name="Path 511" d="M61.192,47.155c.04,0,3.468,1.6,3.3,1.064.092.277-1.579.661-1.493.779a4.567,4.567,0,0,0,4.373,1.559c.106,0,3.23-2.814,3.138-2.338-.126.661-2.305-2.206-2.424-2.3s-4.749-2.523-5.2-2.18a.66.66,0,0,0,.555.482c0,.258-1.136.053-1.242.264q.316.25.614.515c-.225.436-1.533-.211-1.486.661a2.811,2.811,0,0,0,1.024.773C62.381,46.9,59.877,46.435,61.192,47.155Z" fill="none" stroke="#6d6d6d" stroke-miterlimit="10" stroke-width="1"/>
        <path id="Path_512" data-name="Path 512" d="M74.205,59.085c-.945,2.233,3.811,1.717,3.811,1.229C78.017,59.567,74.479,58.45,74.205,59.085Z" fill="none" stroke="#6d6d6d" stroke-miterlimit="10" stroke-width="1"/>
        <path id="Path_513" data-name="Path 513" d="M63.774,51.422c-.079-.251-2.913.126-2.471.489C62.05,52.525,63.847,51.667,63.774,51.422Z" fill="none" stroke="#6d6d6d" stroke-miterlimit="10" stroke-width="1"/>
        <path id="Path_514" data-name="Path 514" d="M46.534,51.376c.192-.489-1.235-.41-1.116-.244C45.675,51.5,46.349,51.872,46.534,51.376Z" fill="none" stroke="#6d6d6d" stroke-miterlimit="10" stroke-width="1"/>
        <path id="Path_515" data-name="Path 515" d="M62.949,55.848c-.6-.5-2.378.694-2.134.9C61.786,57.573,65.149,57.658,62.949,55.848Z" fill="none" stroke="#6d6d6d" stroke-miterlimit="10" stroke-width="1"/>
        <path id="Path_516" data-name="Path 516" d="M54.315,52.565c.3-.41-1.2-1.717-1.275-1.1S54,53.005,54.315,52.565Z" fill="none" stroke="#6d6d6d" stroke-miterlimit="10" stroke-width="1"/>
        <path id="Path_517" data-name="Path 517" d="M57.6,53.285c-.892-.377.377,1.321.238,1.321a3.294,3.294,0,0,0-1.42-.661c-.317.258.462,1.037.2,1.163-.4.192-1.387-1.7-1.942-1.731-1.189-.066.423,1.691.476,1.724,1,.6,1.784.139,2.781.41-.139-.04,1.1,3.164,2.272.33C61.07,53.747,58.623,53.695,57.6,53.285Z" fill="none" stroke="#6d6d6d" stroke-miterlimit="10" stroke-width="1"/>
        <path id="Path_518" data-name="Path 518" d="M49.638,51.171c.661-.106-2.642-.892-2.642.37C46.983,53.681,49.645,51.171,49.638,51.171Z" fill="none" stroke="#6d6d6d" stroke-miterlimit="10" stroke-width="1"/>
        <path id="Path_519" data-name="Path 519" d="M47.809,50.392c.3.139,2.431.112,2.431-.324,0-1.592-3.527.172-3.442.244A3.694,3.694,0,0,0,47.809,50.392Z" fill="none" stroke="#6d6d6d" stroke-miterlimit="10" stroke-width="1"/>
        <path id="Path_520" data-name="Path 520" d="M59.171,47.195c.264-.489-1.572-.879-1.116-.449C58.312,46.99,58.913,47.691,59.171,47.195Z" fill="none" stroke="#6d6d6d" stroke-miterlimit="10" stroke-width="1"/>
        <path id="Path_521" data-name="Path 521" d="M54.051,49.124c.6-.2.978,0,1.123.575-.073.178-1.387.126-1.321.244s7.194,2.926,3.554-.661a3.793,3.793,0,0,0-1.724-.931C52.466,47.955,54.316,48.932,54.051,49.124Z" fill="none" stroke="#6d6d6d" stroke-miterlimit="10" stroke-width="1"/>
        <path id="Path_522" data-name="Path 522" d="M74.542,75.322c.073-.429-3.653-2.979-3.851-2.953-.357.046-2.094,2.378-1.869,3.118S74.575,75.123,74.542,75.322Z" fill="none" stroke="#6d6d6d" stroke-miterlimit="10" stroke-width="1"/>
        <path id="Path_523" data-name="Path 523" d="M65.717,43.1c1.321-.951.231.4.244.416a3.554,3.554,0,0,1,.793.126c-1.493,1.751,2.788,1.466,2.768,1.136.192,2.722,5.456-.912,6.09-.462,1.215.865-3.2,1.717-3.091,1.863,0,0,1.42,1.2,1.242,1.209-.839.066-5.225-3.052-4.485-.277.172.661,3.62,1.982,3.62,2.589,0,0-4.347-1.321-4.452.575-.066,1.176,2.4-.211,2.424-.139-.383-.852.383,2.642.383,1.982,0,.793-3.369-2.061-3.23-.489a7.357,7.357,0,0,0,.991.766c0,.271-2.893.509-2.213,1.2.779.8,9.572,1.044,10.014,0s-3.3-.779-3.468-1.057c.522.819,3.3-1.486,3.521-1.592,1.4-.773,1.982.363,2.722-1.823.218-.661-2.424-.661-2.4-.661,1.539-1.09,3.567-.661,4.967-1.321.852-.423,5.9-3.032,5.945-3.415s-2.365-.1-2.5-.159c1.163.509,5.285-2.233,5.351-2.22-.33-.106-5.113-1.731-5.192-.5a1.83,1.83,0,0,1,.773-.661c-.938.37-5.635.119-6.269.152-2.153.112-4.234-.284-6.13.238-.383.106-9.2,3-9.36,2.642A.833.833,0,0,0,65.717,43.1Z" fill="none" stroke="#6d6d6d" stroke-miterlimit="10" stroke-width="1"/>
        <path id="Path_524" data-name="Path 524" d="M95.614,92.259a4.622,4.622,0,0,0-1.8,2.074c-.092.2-1.737,1.85-1.07,2.246,1.513.885,2.906-1.321,3.065.661-.053-.661,2.193.244,2.292.053-.04.086-.661-1.717-.363-1.585.4.185-2.979-2.153-2.933-1.764a3.688,3.688,0,0,1,.806-1.684Z" fill="none" stroke="#6d6d6d" stroke-miterlimit="10" stroke-width="1"/>
        <path id="Path_525" data-name="Path 525" d="M.961,89.616c.449-.2.661-.456.449-.7S.618,89.788.961,89.616Z" fill="none" stroke="#6d6d6d" stroke-miterlimit="10" stroke-width="1"/>
        <path id="Path_526" data-name="Path 526" d="M4.139,87.777c-.522-.2-1.05.628-1.123.621C2.792,88.362,4.641,87.985,4.139,87.777Z" fill="none" stroke="#6d6d6d" stroke-miterlimit="10" stroke-width="1"/>
        <path id="Path_527" data-name="Path 527" d="M12.964,83.229c-.859,1.083-1.566,3.158.264,1.321C13.5,84.273,13.9,82.06,12.964,83.229Z" fill="none" stroke="#6d6d6d" stroke-miterlimit="10" stroke-width="1"/>
        <path id="Path_528" data-name="Path 528" d="M1.707,80.546c-.35-.211-.6-.112-.746.284a1.155,1.155,0,0,0,1.176.39C3.4,80.758,1.7,80.474,1.707,80.546Z" fill="none" stroke="#6d6d6d" stroke-miterlimit="10" stroke-width="1"/>
        <path id="Path_529" data-name="Path 529" d="M145.817,105.576c-.059-.462-.918.139-.733.271C145.46,106.13,145.883,106.038,145.817,105.576Z" fill="none" stroke="#6d6d6d" stroke-miterlimit="10" stroke-width="1"/>
        <path id="Path_530" data-name="Path 530" d="M164.8,110.22c0-.3-2.418,0-2.365,0C162.126,110.193,164.874,111.012,164.8,110.22Z" fill="none" stroke="#6d6d6d" stroke-miterlimit="10" stroke-width="1"/>
        <path id="Path_531" data-name="Path 531" d="M171.123,110.563a7.969,7.969,0,0,1,.621-.786,7.779,7.779,0,0,0-1.916.661C169.5,111.072,171.2,111,171.123,110.563Z" fill="none" stroke="#6d6d6d" stroke-miterlimit="10" stroke-width="1"/>
        <path id="Path_532" data-name="Path 532" d="M130.109,74.582c2.642-.145.159-4.181-1.11-3.442a9.544,9.544,0,0,1-2.49,1.1.662.662,0,0,0-.594-.456c-1.658,1.982.059-.568-2.226-.568-.476,0,.244.661.119.661-.462-.053-1.163-.192-1.275.661-.053.377,1.9.291,1.83.218s-.192.7-.126.661c-.053.033-1.566.066-1.433.337.046.092,1.381.139,1.612.41.423.489-.456,1.1-.548,1C125.465,76.934,128.4,74.681,130.109,74.582Z" fill="none" stroke="#6d6d6d" stroke-miterlimit="10" stroke-width="1"/>
        <path id="Path_533" data-name="Path 533" d="M135.057,91.856c2.22,0,2.827-1.6,2.609-3.3-.073-.581,1.116-.661-.218-1.394a5.2,5.2,0,0,0-1.744.37c-.04,1.189.086.139-1.182.832C134.482,88.4,134.508,91.856,135.057,91.856Z" fill="none" stroke="#6d6d6d" stroke-miterlimit="10" stroke-width="1"/>
        <path id="Path_534" data-name="Path 534" d="M141.854,80.758c.211-.231.462-1.123.139-1.024S141.768,80.857,141.854,80.758Z" fill="none" stroke="#6d6d6d" stroke-miterlimit="10" stroke-width="1"/>
        <path id="Path_535" data-name="Path 535" d="M137.6,82.9c-.165-.178-.812.826-.561.819S137.757,83.083,137.6,82.9Z" fill="none" stroke="#6d6d6d" stroke-miterlimit="10" stroke-width="1"/>
        <path id="Path_536" data-name="Path 536" d="M137.388,84.134c.813-.713.046,2.741.046,2.3,0-.621,1.07.3.951.324a1.376,1.376,0,0,0,.482-.72c.376.059-.244,1.48-.238,1.572.073.555,1.427-.35,1.506-.2.892,1.552-.713,2.2-.661,3.224a1.181,1.181,0,0,0-.925.971,11.338,11.338,0,0,0,2.081.3c.046.251-2.94.865-2.206,1.843a49.464,49.464,0,0,0,5.681-1.5c.317-.324-.548-.119-.522-.35.145-1.077.991-.575.522-1.75a3.067,3.067,0,0,1-1.044-.819c-.6-1.017-1.189-3.2-2.642-3.1,0,0,.938-1.559.839-1.8-.41-1.044-1.182.145-1.764-.555-.2-.231,1.2-1.163.786-1.546C140,82.007,137.448,84.081,137.388,84.134Z" fill="none" stroke="#6d6d6d" stroke-miterlimit="10" stroke-width="1"/>
        <path id="Path_537" data-name="Path 537" d="M152.667,87.51c-.159-.04,2.114-.614,1.03-1.354C152.773,85.521,152.575,87.49,152.667,87.51Z" fill="none" stroke="#6d6d6d" stroke-miterlimit="10" stroke-width="1"/>
        <path id="Path_538" data-name="Path 538" d="M158.711,83.672c-.476,0-.661,1.031-.575,1.2S159.18,83.632,158.711,83.672Z" fill="none" stroke="#6d6d6d" stroke-miterlimit="10" stroke-width="1"/>
        <path id="Path_539" data-name="Path 539" d="M161.354,83.368a2.418,2.418,0,0,0,.872-.628C162.833,82.066,160.416,83.421,161.354,83.368Z" fill="none" stroke="#6d6d6d" stroke-miterlimit="10" stroke-width="1"/>
        <path id="Path_540" data-name="Path 540" d="M162.059,82.165c.1-.2-.72-.112-.535.073a.349.349,0,0,0,.535-.073Z" fill="none" stroke="#6d6d6d" stroke-miterlimit="10" stroke-width="1"/>
        <path id="Path_541" data-name="Path 541" d="M158.4,46.6c.707.608,2.087-.092,2.966.456-.033,0-1.764.661-1.757.661.429,1.11,6.606.542,6.189-1.169-.053-.2-4.029-.766-3.871-.819a.746.746,0,0,0-.145.9c-.33.244-1.929-1.07-2.286-1.024a2.651,2.651,0,0,0-.542.74l-.661-.5C157.589,45.84,158.3,46.514,158.4,46.6Z" fill="none" stroke="#6d6d6d" stroke-miterlimit="10" stroke-width="1"/>
        <path id="Path_542" data-name="Path 542" d="M153.222,48.265c-1.268-.3.661,1.982.964,2.134.588.337,1.057-1.09,1.48-1.255s-.178.779.231.753a3.27,3.27,0,0,1,.9-.383c.363.568-2.642,1.665-2.239,1.77.76.192,1.579-.3,2.365-.112a12.421,12.421,0,0,0-2.319.74c-.073.74,1.321.707,1.665.839a.568.568,0,0,1-.41.35c-.192.258,1.05.383,1.248.264a19.278,19.278,0,0,0,1.321-1.982c.152-.192,1.354-3.072,2.1-1.889-.2-.317.3,2.51.033,2.457.317.066,3.171.548,3.058-.779.059.661-2.953-2.2-2.9-2.16a7.094,7.094,0,0,0-3.006-1.057c.39.092-.621-1.255-1.1-1.414-.7-.231.159,2.49.2,2.272.661-2.8-1.949-.6-1.929-.608a4.866,4.866,0,0,0-.779-.661,2.872,2.872,0,0,1,.707-.291C154.6,47.34,149.992,47.518,153.222,48.265Z" fill="none" stroke="#6d6d6d" stroke-miterlimit="10" stroke-width="1"/>
        <path id="Path_543" data-name="Path 543" d="M152.456,49.923a3.3,3.3,0,0,0,.6.449c-.277,0-.581-1.433-1.123-1.268A.713.713,0,0,0,152.456,49.923Z" fill="none" stroke="#6d6d6d" stroke-miterlimit="10" stroke-width="1"/>
        <path id="Path_544" data-name="Path 544" d="M302.537,75.9a1.454,1.454,0,0,0-1.044.35c.165.2,2.589.773,2.589.225a2.353,2.353,0,0,0-1.546-.575Z" fill="none" stroke="#6d6d6d" stroke-miterlimit="10" stroke-width="1"/>
        <path id="Path_545" data-name="Path 545" d="M261.416,101.639c-.126-.832-1.982,2.735-1.05,2.22-.165.092.779-.528.753-.39a7.435,7.435,0,0,0-.5-.661c0,.2,5.377.152,5.106-2.186.145,1.268-4.5-.832-3.963-1.2C261.819,99.376,261.416,101.506,261.416,101.639Z" fill="none" stroke="#6d6d6d" stroke-miterlimit="10" stroke-width="1"/>
        <path id="Path_546" data-name="Path 546" d="M251.468,113.146c.264.535.515-.746.661-.106,0,.092-.357,2.021.264,1.883.509-.112,1.427-1.949.661-2.279C252.829,112.571,250.8,111.791,251.468,113.146Z" fill="none" stroke="#6d6d6d" stroke-miterlimit="10" stroke-width="1"/>
        <path id="Path_547" data-name="Path 547" d="M254.434,112.927c.185-.813,1.321.152,1.321-1.123,0-.661-1.321,0-1.387.119C254.15,112.326,254.249,113.72,254.434,112.927Z" fill="none" stroke="#6d6d6d" stroke-miterlimit="10" stroke-width="1"/>
        <path id="Path_548" data-name="Path 548" d="M256.277,110.167s-4.109.185-3.792,1.625a21.443,21.443,0,0,0,3.706-.377c-.766.178.733.542.912.528.581-.046.139-.846.244-.912.661-.4,2.642.357,3.3-.561.528-.72,1.731-5.674.8-6.209-1.169-.661-1.75,3.091-2.3,3.858C258.708,108.731,256.4,108.892,256.277,110.167Z" fill="none" stroke="#6d6d6d" stroke-miterlimit="10" stroke-width="1"/>
        <path id="Path_549" data-name="Path 549" d="M235.066,127.137a8.761,8.761,0,0,0,.449-1.09c-.1-.376-2.213-.092-1.784.72C233.778,126.866,234.993,128.517,235.066,127.137Z" fill="none" stroke="#6d6d6d" stroke-miterlimit="10" stroke-width="1"/>
        <path id="Path_550" data-name="Path 550" d="M243.812,123.833c.41-.31,1.374-2.4,1.05-2.873C243.779,119.381,242.92,124.54,243.812,123.833Z" fill="none" stroke="#6d6d6d" stroke-miterlimit="10" stroke-width="1"/>
        <path id="Path_551" data-name="Path 551" d="M243.039,129.541c-.575,1.9,5.569,4.446,4.3,5.9,2.041-2.345-2.345-3.3-2.794-4.373s1.579-2.6,0-3.521C243.489,126.925,243.066,129.462,243.039,129.541Z" fill="none" stroke="#6d6d6d" stroke-miterlimit="10" stroke-width="1"/>
        <path id="Path_552" data-name="Path 552" d="M241.969,135.5a5.278,5.278,0,0,0-1.07,1.533c-.106-.2,2.16-1.632,1.744-2.543a1.407,1.407,0,0,0-.674,1.011Z" fill="none" stroke="#6d6d6d" stroke-miterlimit="10" stroke-width="1"/>
        <path id="Path_553" data-name="Path 553" d="M243.515,132.328c.073.383.251,1.176.8.984S243.461,132.058,243.515,132.328Z" fill="none" stroke="#6d6d6d" stroke-miterlimit="10" stroke-width="1"/>
        <path id="Path_554" data-name="Path 554" d="M247.032,135.612c-.2-.271-.694.231-.621.436S247.232,135.856,247.032,135.612Z" fill="none" stroke="#6d6d6d" stroke-miterlimit="10" stroke-width="1"/>
        <path id="Path_555" data-name="Path 555" d="M247.855,136.074s-3.633,2.358-3.019,2.3.865-.918,1.493-.476.244,1.869,1.447,1.869c-.9,0,.958-1.922.872-1.585a2.027,2.027,0,0,0-.793-2.107Z" fill="none" stroke="#6d6d6d" stroke-miterlimit="10" stroke-width="1"/>
        <path id="Path_556" data-name="Path 556" d="M244.862,133.722a.912.912,0,0,0,.046,1.262c1.566-.344-.548,1.189.661,1.473C246.606,136.708,246.679,133.326,244.862,133.722Z" fill="none" stroke="#6d6d6d" stroke-miterlimit="10" stroke-width="1"/>
        <path id="Path_557" data-name="Path 557" d="M270.038,149.437c0,1.083-2.781.41-2.821.74-.152,1.572,4.28.053,3.369-1.09C270.281,148.995,270.1,149.107,270.038,149.437Z" fill="none" stroke="#6d6d6d" stroke-miterlimit="10" stroke-width="1"/>
        <path id="Path_558" data-name="Path 558" d="M271.16,149.331c.746-.218-.581-1.163-.74-1.2C270.664,148.182,270.915,149.4,271.16,149.331Z" fill="none" stroke="#6d6d6d" stroke-miterlimit="10" stroke-width="1"/>
        <path id="Path_559" data-name="Path 559" d="M266.37,151.241c.661.046-2.147-2.338-2.794-2.708-1.453-.826-4.274-2.107-5.727-2.021-.423,0-1.011,1.321-1.526,1.229-1.037-.192-.443-1.321-1.182-1.6-.661-.258-.661-.964-1.777-.8-.192.033-1.275.885-.892.971.211.046,2.4,1.268,2.418.892,0,.172-1.321.165-1.466.185-.608.112,2.286,1.533,2.47,1.618,1.275.621,2.2.489,2.94,1.79s-1.037,1.229-.74,1.817c.548,1.077,4.578.126,5.007.132a4,4,0,0,1,2.642.694c-.04,0,3.613,1.823,3.224,1.176C268.788,154.352,265.637,151.2,266.37,151.241Z" fill="none" stroke="#6d6d6d" stroke-miterlimit="10" stroke-width="1"/>
        <path id="Path_560" data-name="Path 560" d="M210.44,135.8c-.542.066-.555,3.217.073,3.468C212.263,139.986,211.874,135.632,210.44,135.8Z" fill="none" stroke="#6d6d6d" stroke-miterlimit="10" stroke-width="1"/>
        <path id="Path_561" data-name="Path 561" d="M183.944,155.97c0,.033-1.169,2.041-1.367,2.246-.528.528-1.916.852-2.332,1.321-1.149,1.321-.377,1.922-.575,3.878-.145,1.381-1.77,6.956,1.982,5.139,2.147-1.044,1.7-7.18,2.51-9.2.106-.264.661.6.661-.522S184.189,156.941,183.944,155.97Z" fill="none" stroke="#6d6d6d" stroke-miterlimit="10" stroke-width="1"/>
        <path id="Path_562" data-name="Path 562" d="M187.6,133.141c.277.317.826-.053.859-.178S187.288,132.784,187.6,133.141Z" fill="none" stroke="#6d6d6d" stroke-miterlimit="10" stroke-width="1"/>
        <path id="Path_563" data-name="Path 563" d="M276.88,153.764c.073.41.661.661.859.515S276.8,153.341,276.88,153.764Z" fill="none" stroke="#6d6d6d" stroke-miterlimit="10" stroke-width="1"/>
        <path id="Path_564" data-name="Path 564" d="M274.224,151.24c0,.106.575.74.707.661S274.257,151.049,274.224,151.24Z" fill="none" stroke="#6d6d6d" stroke-miterlimit="10" stroke-width="1"/>
        <path id="Path_565" data-name="Path 565" d="M277.026,152.885c.2-.145-1.156-.964-1.176-.7S276.821,153.031,277.026,152.885Z" fill="none" stroke="#6d6d6d" stroke-miterlimit="10" stroke-width="1"/>
        <path id="Path_566" data-name="Path 566" d="M272.647,150.1c-.046.244.753,1.546,1.05,1.321C274.225,151.049,272.679,149.855,272.647,150.1Z" fill="none" stroke="#6d6d6d" stroke-miterlimit="10" stroke-width="1"/>
        <path id="Path_567" data-name="Path 567" d="M277.759,152.845c-.192.449.555,1.229.661,1.249S277.935,152.495,277.759,152.845Z" fill="none" stroke="#6d6d6d" stroke-miterlimit="10" stroke-width="1"/>
        <path id="Path_568" data-name="Path 568" d="M278.412,154.669c0,.1.522.6.766.41S278.346,154.491,278.412,154.669Z" fill="none" stroke="#6d6d6d" stroke-miterlimit="10" stroke-width="1"/>
        <path id="Path_569" data-name="Path 569" d="M251.7,155.977c.185.165,1.116-.04,1.083-.284S251.415,155.733,251.7,155.977Z" fill="none" stroke="#6d6d6d" stroke-miterlimit="10" stroke-width="1"/>
        <path id="Path_570" data-name="Path 570" d="M271.509,171.745s-.449-2.708-.218-2.6c-1.592-.746-3.911-4.062-5.06-5.813a26.507,26.507,0,0,1-1.823-4.373c-.357-.852-1.1-.211-1.321-.766-.37-.812,0-2.51-.8-3.257-.608-.568-.931,4.062-.938,4.082-.846,2.4-.343,2.444-2.51,1.678-.621-.225-2.49-1.182-2.642-1.982-.139-.694,1.493-1.863,1.275-2.3.165.33-3.924-1.163-4.01-1.123q-.159.4.317.614c-1.123-1.321-2.973,3.382-2.418,3.3.264-.033-1.671-.3-1.136,0-1.387-.806-1.176-1.6-2.834-.416-1.077.779-.694,1.823-1.321,2.517-.165.185-.277-.945-.535-.773-.892.6-.2,1.374-1,2.035a10.475,10.475,0,0,1-2.6,1.414c-1.44.707-2.464.925-3.712,2.1a.612.612,0,0,1-.093-.575c0,.3-.357,1.229-.4,1.724s.476,2.411.337,2.7a.993.993,0,0,1-.5-.469,3.914,3.914,0,0,1,.244.661c-.2-.159-.4-.324-.6-.489-.238.6,1.559,3.759,1.731,4.465a15.472,15.472,0,0,1-.086,3.468c1.149,2.358,2.814.746,4.716.185,1.559-.456,2.563-.786,4.069-1.354,1.163-.436,3.633-1.321,4.9-1.11.779.126,4.677,3.177,3.785,3.58.271-.119,1.876-2.114,1.982-2.021.5.469-.813,1.737-.879,2.028-.238,1.143,1.321-.9.9-.568.561-.449.3,1.394.244,1.248s1.843,2.438,2.021,2.583c1.07.925,3.732.066,3.706.053a1.622,1.622,0,0,1,0,.621c-.244-.3.885.377,1.156.661-.548-.522,3.131-1.671,3.025-1.552.561-.661.885-3.56,1.321-4.505C270.076,176.646,271.186,172.009,271.509,171.745Z" fill="none" stroke="#6d6d6d" stroke-miterlimit="10" stroke-width="1"/>
        <path id="Path_571" data-name="Path 571" d="M256.991,179.962c.2.2.892.145,1-.145S256.792,179.777,256.991,179.962Z" fill="none" stroke="#6d6d6d" stroke-miterlimit="10" stroke-width="1"/>
        <path id="Path_572" data-name="Path 572" d="M265.439,185.662a6.777,6.777,0,0,1-1.44-.456c.251-.073.046,3.871,2.154,2.761C267.216,187.38,267.625,185.4,265.439,185.662Z" fill="none" stroke="#6d6d6d" stroke-miterlimit="10" stroke-width="1"/>
        <path id="Path_573" data-name="Path 573" d="M283.532,192.546c.132.04.561-.079.317-.41S283.213,192.453,283.532,192.546Z" fill="none" stroke="#6d6d6d" stroke-miterlimit="10" stroke-width="1"/>
        <path id="Path_574" data-name="Path 574" d="M291.98,182.175c-.5.918-1.6-1.381-1.7-1.374a.484.484,0,0,0,0,.515,8.05,8.05,0,0,0-2.021-2.5c-.04,0,1.255,2.563,1.367,2.88.39,1.136-.892,1.09-.846,1.711,0-.046.931,2.642.879,2.583C290.732,187.995,293.011,180.283,291.98,182.175Z" fill="none" stroke="#6d6d6d" stroke-miterlimit="10" stroke-width="1"/>
        <path id="Path_575" data-name="Path 575" d="M288.935,185.477c-1.05-.819-7.365,4.822-5.456,6.1S289.82,186.191,288.935,185.477Z" fill="none" stroke="#6d6d6d" stroke-miterlimit="10" stroke-width="1"/>
        <path id="Path_576" data-name="Path 576" d="M293.083,160.958c.2.086.879-.159.879-.509S292.77,160.858,293.083,160.958Z" fill="none" stroke="#6d6d6d" stroke-miterlimit="10" stroke-width="1"/>
        <path id="Path_577" data-name="Path 577" d="M291.928,162.063c.317.33.951.3.971-.284S291.644,161.776,291.928,162.063Z" fill="none" stroke="#6d6d6d" stroke-miterlimit="10" stroke-width="1"/>
        <path id="Path_578" data-name="Path 578" d="M183.569,45.748a1.366,1.366,0,0,0-.793.5c.35.766,3.58-.773,3.594-.991C186.426,44.235,183.76,45.458,183.569,45.748Z" fill="none" stroke="#6d6d6d" stroke-miterlimit="10" stroke-width="1"/>
        <path id="Path_579" data-name="Path 579" d="M188.232,46.184c0-.436-1.321.046-1.044.139S188.232,46.62,188.232,46.184Z" fill="none" stroke="#6d6d6d" stroke-miterlimit="10" stroke-width="1"/>
        <path id="Path_580" data-name="Path 580" d="M182.372,45.531a3.442,3.442,0,0,1,1.42-.3c.165-.449-2.88,0-2.788.251a.918.918,0,0,0,1.293.122c.026-.022.05-.045.074-.069Z" fill="none" stroke="#6d6d6d" stroke-miterlimit="10" stroke-width="1"/>
        <path id="Path_581" data-name="Path 581" d="M183.648,67.369c.727.733,1.169-.33,1.546-.489C185.709,66.677,182.307,66.008,183.648,67.369Z" fill="none" stroke="#6d6d6d" stroke-miterlimit="10" stroke-width="1"/>
        <path id="Path_582" data-name="Path 582" d="M189,59.111a31.052,31.052,0,0,0-2.84,3.171c0,.079,1.44,1.282,1.321,1.321-.126-.258-.079-.449.139-.568-.132,0,3.607,3.131,3.772,1.321.046-.482-1.645-1.519-1.717-2.193s.661-1.367.945-1.982a10.306,10.306,0,0,1,1.7-2.239c1.11-1.024,9.155-4.4,8.8-4.7-.859-.733-8.032,1.612-9.2,2.338A36.256,36.256,0,0,0,189,59.111Z" fill="none" stroke="#6d6d6d" stroke-miterlimit="10" stroke-width="1"/>
        <path id="Path_583" data-name="Path 583" d="M267.691,57.394a2.256,2.256,0,0,0,2.021-.443C269.884,55.068,261.581,56.951,267.691,57.394Z" fill="none" stroke="#6d6d6d" stroke-miterlimit="10" stroke-width="1"/>
        <path id="Path_584" data-name="Path 584" d="M261.311,58.345c0-.41-1.321.152-.793.357C260.815,58.814,261.311,58.755,261.311,58.345Z" fill="none" stroke="#6d6d6d" stroke-miterlimit="10" stroke-width="1"/>
        <path id="Path_585" data-name="Path 585" d="M225.944,51.03c.5.31,4.981-.436,5.133-1.321s-2.6-1.136-2.51-.449C228.071,45.359,226.591,51.43,225.944,51.03Z" fill="none" stroke="#6d6d6d" stroke-miterlimit="10" stroke-width="1"/>
        <path id="Path_586" data-name="Path 586" d="M222.08,47.169a2.363,2.363,0,0,0-.575.819c1.255,1.2,4.314,2.127,4.578,0C226.307,46.184,222.08,46.68,222.08,47.169Z" fill="none" stroke="#6d6d6d" stroke-miterlimit="10" stroke-width="1"/>
        <path id="Path_587" data-name="Path 587" d="M220.753,46.4c.812.377-.713.416-.806.469-.436.218,1.618.1,1.982-.053s3.091-.951,2.589-1.566C222.508,42.716,220.368,46.223,220.753,46.4Z" fill="none" stroke="#6d6d6d" stroke-miterlimit="10" stroke-width="1"/>
        <path id="Path_588" data-name="Path 588" d="M236.711,57.857c-.575,1.262,1.011.377,1.024.165a.661.661,0,0,0-.9-.255A.65.65,0,0,0,236.711,57.857Z" fill="none" stroke="#6d6d6d" stroke-miterlimit="10" stroke-width="1"/>
        <path id="Path_589" data-name="Path 589" d="M188.807,45.174c.4.449,2.834.5,2.94-.3.033-.271-2.021-.661-2.147-.614C189.95,44.209,189.027,45.411,188.807,45.174Z" fill="none" stroke="#6d6d6d" stroke-miterlimit="10" stroke-width="1"/>
        <path id="Path_590" data-name="Path 590" d="M220.111,44.467c.1-.41-1.552-.231-1.123.159C219.14,44.764,220.012,44.877,220.111,44.467Z" fill="none" stroke="#6d6d6d" stroke-miterlimit="10" stroke-width="1"/>
        <path id="Path_591" data-name="Path 591" d="M294.662,64.251c.112.086,2.312-.066,1.876-.581-1.03-1.235-3.237.522-3.072.608C293.863,64.258,294.259,64.251,294.662,64.251Z" fill="none" stroke="#6d6d6d" stroke-miterlimit="10" stroke-width="1"/>
        <path id="Path_592" data-name="Path 592" d="M258.113,56.654a3.96,3.96,0,0,0,2.722.548c.661-.126,2.385-1.143,1.731-1.374.31.112,1.222,2.193,1.757.581.449-1.321-.819-1.017-1.982-1.394-.1-.033-2.147-.086-2.16-.086C260.491,54.871,256.178,55.6,258.113,56.654Z" fill="none" stroke="#6d6d6d" stroke-miterlimit="10" stroke-width="1"/>
        <path id="Path_593" data-name="Path 593" d="M263.306,60.148c1.321-.317-3.422-1.9-2.49-.436C261.112,60.188,262.863,60.26,263.306,60.148Z" fill="none" stroke="#6d6d6d" stroke-miterlimit="10" stroke-width="1"/>
        <path id="Path_594" data-name="Path 594" d="M301.116,72.845l.945.218c.244,0-.31-.324-.238-.37-.284.178,1.671-.5,1.222-.661.033,0-3.831-2.3-3.884-1.5.059-.892.39,1.44.258,1.011-.713-2.358-5.536-4.941-8.237-5.522a10.83,10.83,0,0,0-4.967.152c.073-.04.614,1.156-.126,1.612-.343.211-1.982-1.229-1.6-1.407s.865.628.964-.139c.073-.621-3.164.251-3.633.317a17.8,17.8,0,0,1-2.352-.178c-1.024-.1-.476.806-.9,1.011.363-.172-1.321-1.625-1.321-1.612-1.473-1.248-1.262-1.48-4-1.691-.839-.066-4.941,0-5.357-1.248-.119-.37,1.248.073.885-.535-.806-1.321-4.076.192-4.115.33a5.779,5.779,0,0,0,.661-.449,3.9,3.9,0,0,0-.945-.317c-.284-.462,1.321,0,1.321-.244.238-1.414-6.824-.581-6.13.383a.733.733,0,0,0,.661,0c-.449-.251.079,1.711.033,1.116,0,.112-1.6-.185-1.869,0a1.4,1.4,0,0,0,.482.317s-4.459-.846-4.763-.918-.812,1.863-1.486,1.823c-1-.059-1.77-2.451-2.279-2.418a1.783,1.783,0,0,0,.9.178c1.275-.746-3.177-3.389-4.129-3.191-.694.145-.839,1.632-1.09,1.671-.377.066-3.963-.086-4.062-.5-.066-.225.482-.5.251-.561-1.85-.482-3.3.383-4.452.5-.3,0,.059-1.077-.39-1.156-.218-.04-3.23,0-2.959.337.165.059.337.106.509.152.046.4-3.772,1-3.851,1.215.819-2.107,7-2.642,6.493-4.868-.152-.661.258-1.209-1.11-1.863-1.744-.819-3.058.489-4.624.1a4.308,4.308,0,0,1,.608-.859c0,.172-2.186-.423-2.457-.31.185-.079,1.506-.3,1.215-.753-1-1.519-3.3.416-4.135,1.024.429-.31-1.605,2.385-1.678,1.116a3.66,3.66,0,0,0,.548.469c.092-.291-2.338.251-2.464.2.073-.178.152-.35.238-.522a16.918,16.918,0,0,0-2.722.522.891.891,0,0,0,.515.383c-.04-.31-4.069,1.07-4.366,1.209-.951.443-.462.4-.872.951a3.773,3.773,0,0,1-.72-.046c-.086.092.826.522.832.6a4.066,4.066,0,0,1-.661.046s1,.595.548,1.011c-.271.244-1.836.112-2.286.2-6.262,1.321,0,1.744-1.215,3.4-.482.661-3.613-2.068-4.531-1.156-.079.079,1.011.839.766.9-.476.132-1.2-.561-1.546.1-.271.528,2.213,1.367,2.021,1.6,0,0-2.642-.548-2.642-.588-.522-.6.9-2.292-.211-2.642s-1.764,4.987-1.321,5.6c1.2,1.625,3.428.766,4.181,3.243.4,1.321-2.292-1.836-1.123-1.321-.8-.343-.542-1.037-1.6-.852-1.506.258-.073,1.116-.661,1.83-.661.839-1.552,2.054-2.471,2.259-.251.059-2.5-.059-2.3-.661-.033.079,2.973-.3,3.475-1.982.317-1.064-.211-1.916-.443-3.131-.066-.35.1-4.016.125-3.963-1.777-2.926-4.736.41-4.888,2.484.04-.575-.066,2.153-.2,1.81,0,0,3.21,2.061,1.321,2.365-1.321.225-6.606-4.439-8.237-3.508.429-.244,2.867,4.188.515,3.237-.925-.377.033-.462-2.094-.271,0,0-3.4.568-3.138.357s.733-.429.661-.958c0,.337-4.446,1.79-5.067,2.061-.865.377-.661,1.982-2.259.918s.8-1.017,1-1.248c.72-.865-2.933-1.8-2.8-1.255,0-.152.859,2.741.172,2.239,1.711,1.235-.271,1.116-.383,1.2-1.982,1.585-1.982-.125-2.371,2.708-.066.476-1.638-.482-1.883-.291-.324-.2-.661-.416-.958-.628-.581.271-.661.621-.264,1.057.958-.542,1.268,2.081-.4.76-.41-.324-2.675-5.285-3.6-4.849.661-.317,10.041,4.148,7.167-1-.548-.991-6.394-3.461-6.89-2.84a1.318,1.318,0,0,0,.621-.218c-.079-.661-1.513,0-1.671-.152-.39-.429-1.321.535-1.6-.522.053.2,1.519-.192,1.559-.4.31-1.711-2.7-.185-2.325-.172-.3,0,.159-.925.132-.971-.608-1.169-1.123.991-1.46.991-.119,0,.079-1.024-.132-.885-.4.429-.8.865-1.2,1.321-.436.086.852-1.414.846-1.447-.125-.779-1.46.713-1.453.713.416-.357-1.678,1.189-1.064,1-.806.244.211-1.817.31-1.433.053.178-1.222.145-1.2.449a1.258,1.258,0,0,1,.35.661,2.714,2.714,0,0,0-.951-.033,1.111,1.111,0,0,0,.476.462A3.561,3.561,0,0,1,160,65.141c.053,0,.357,1.143,0,.925-.621-.41-.489-1.07-1.321-.694-.066,0-1.81,1.321-1.777,1.519s.852-.172.72.522a9.909,9.909,0,0,0-1.42.066c.059-.258.126-.509.2-.766a31.725,31.725,0,0,1-2.51,2.226c.661,0,2.134-1.625,2.834-.978,0,0-.106.713-.119.72-1.982.793-2.537,4.01-4.366,4.809-.159.073.746.661.443.793-1.044.4-1.05.806-1.916,1.519-.066.053-.661-.76-.7-.251-.1,1.044-.614.238-1.136,1.017a.721.721,0,0,0,.449.37c-.555-1.229-1.982,1.982-1.929,1.731-.317,1.942.951,1.321,1.05,1.632.284,1-1.156.528-1.09.476a5.708,5.708,0,0,0-.145.872c0,.363.773-.4.918,0,.1.264-.482.542-.561.661-.978,1.493,3.3.337,2.794.449.661-.152,1.05-1.242,1.447-1.473.238-.145,2.087,5.628,2.272,5.694.872.33,2.689-2.319,2.979-2.4-.119.3-.271.377-.462.218.172-1.552,2.028-2.781,1.982-3.963,0-1.546-1.75-.812-1.182-3.085.324-1.321,1.321-1.433,1.982-2.365.535-.76,1.414-2.953,2.424-3.3,4.7-1.552-1.09,3.924-1.235,4.2a6.481,6.481,0,0,0,.225,3.666c1.321,1.321,3.8.344,5.232-.046a4.53,4.53,0,0,1,.4-.561,4.023,4.023,0,0,0-.4.561,3.3,3.3,0,0,1,1.625.661c.317.37-4.029.846-3.838.753-2.788,1.321-.1,1.282-.8,2.087-.832,1.321-1,.317-1.321.6-.112.1-2.18.251-1.414,1.8.746,1.678-.733,2.087-1.665,2.424.079,0-2.431.244-3.032.324-1.321.159-.621.343-1.255-.568-.271-.383-1.8,1.057-2.087.846a1.2,1.2,0,0,1,0-.628c-.363-.1-1.466,0-1.321-.958,0-.172.958.509,1.037.086.145-.8-.456-.271-.661-.661-.112-.178,1.03-2.107.436-2.761-.4-.443-1.07,1.064-1.07,1.064-.429.429-.846-.337-.912,1.453,0,.575,1.1,1.883.819,2.444-.211.429-2.609.872-3.058,1.163a21.782,21.782,0,0,0-2.253,2.253,11.775,11.775,0,0,1-1.526,1.519c-.661.31-2.1.132-2.319.258-.5.277.456,1.03,0,1.407s-1.764-.793-2.068-.218c-.832,1.539.41.37,1.143,1.539,1,1.605,2.563,3.521.231,4.7-1.083.555-3.739-.872-4.624-.4-1.658.9-.363.826-.72,2.365-.727,3.138-.661,4.452,1.922,5.285a4.425,4.425,0,0,0,5.212-1.79c1.189-1.6,1.9-4.373,3.719-5.5-.41.258,3.8-.476,3.448-.489,1.8.092.661-.165,2.22,1.03-.046-.04,5.945,5.456,4.254,5.456.958,0,.661-2.424.727-2.484a1.188,1.188,0,0,1,1.077.363c-.661-.2-6.606-6.606-3.7-6.447.4,0,3.521,3.554,4.518,4.115a1.4,1.4,0,0,1,.059-.231,1.4,1.4,0,0,0-.059.231c-.978-.575,2.609,5.463,2.609,4.056,0-1.242-1.618,3.078.5,1.916a2.78,2.78,0,0,0-.145-.931,1.082,1.082,0,0,0,.581,0c.31-.383-.661-.33-.449-.528s1.209.37,1.064-.436c-.172-.978-.7,0-1.064-.39.119.132-.152-1.982-.324-1.876a5.96,5.96,0,0,0,1.024.2c.561-.251,3.56-.231,4.287-.958-.192.192-1.2-1.605-1.136-1.982a11.919,11.919,0,0,1,1.44-2.266c.343-.489.5-1.612,1.215-1.942.449-.211,2.457-.132,2.57.476a4.454,4.454,0,0,1-1.123.661c-.04-.211.912,1.163.885,1.136s2.583-.661,2.642-.74c.152-.264-2.352-.119-1.149-1.407.284-.3,3.1-1.321,3.3-.918.046.1-1.982,1.982-1.909,2.338.264,1.262,4.129,1.949,4,3.3-.172,1.863-2.391,1.209-3.693,1.182-.555,0-1-.628-1.539-.661a11.876,11.876,0,0,0-4.5.766c-2.153.6-4.538,1.717-2.041,4.261,1.169,1.2,2.312.661,3.633.713.436,0,3.091-.575,3.448-.344s-.773,3.376-.912,3.712l.443.2a.776.776,0,0,1-.033.271.776.776,0,0,1,.033-.271l-.429-.2c-1.321,3.1-3.831,2.464-7.1,1.85-.865-.159-1.566-.575-2.431-.694-1.4-.192-.661-1.321-2.523-.363-.614.324-.443,1.566-.509,1.592-1.1.436-5.859-1.182-7.088-2.444s.852-2.338-.079-3.653c-.568-.8-4.439-.079-5.536.04a21.782,21.782,0,0,0-3.963,1.044c-1.354.383-2.451.271-3.712.6-1.07.284-.661-.165-1.579.337.991-.528-2.134,2.325-1.75,1.711-.476.76-.846,1.6-1.321,2.365-.344.6-.251,1.374-.819,2.226-.37.561-1.123.661-1.539,1.083a14.949,14.949,0,0,0-2.741,4.393c-.727,1.843-.3,2.14-.357,3.752-.059,1.5-.528,3.1-.482,4.578.053,1.625.786,2.279,1.579,3.56,1.784,2.9,3.9,5.582,7.319,5.945a15.472,15.472,0,0,0,5.357-.746c.225-.059,2.517-1.321,2.755-1.037a21.569,21.569,0,0,0,1.942,1.044c.3.145.185.879.575,1.057s.826-.416,1.149-.211c1.817,1.143,1.116.152,2.041,2.246.178.462-.357,1.942-.35,2.173.04,1.883.746,2.16,1.843,4.069.9,1.566,2.054,4.624,1.81,6.441-.264,1.922-1.671,3.587-1.757,5.694-.145,1.414,1.869,4.743,2.18,6.223a48.885,48.885,0,0,0,2.259,6.771c1.2,3.415.172,4.155,3.963,3.679,3.686-.449,5.78-1.6,7.709-5.285a18.246,18.246,0,0,0,.661-2.94c1.321-1.9,2.1-.865,2.464-3.349.258-1.764-.846-1.757.112-3.448.766-1.361,2.873-1.566,3.693-2.788,1.691-2.543-.066-5.351-.548-7.927-.522-2.755.885-4.743,2.781-6.791.779-.852,10.113-10.688,7.213-11.758-1.982-.746-4.221,2.114-6.507.661a18.155,18.155,0,0,0-1.777-3.151c-1.05-1.275-2.51-2.543-3.124-4.267-.264-.74-4.043-11.111-4.175-11.064.225-.079.826,2.4,1.414,2.4a4.114,4.114,0,0,0,.509-1.321c.575.343,2.345,4.347,2.715,5.106,1.037,2.14,2.378,4.023,3.4,6.249.476,1.024.37,3.3,1.083,4.069.958,1.05,3.019,0,4.465-.628,2.589-1.13,5.6-2.642,7.352-4.465.185-.2,2.279-2.642,2.206-3.144s-3.3-4.221-2.867-4.181c-.813-.073-1.83,2.378-3.442,2.233-1.321-.119,0-1.737-.773-1.982-.35-.106-.608.925-.621.912-.753-.561-2.642-4.5-1.645-5.034.588-.324,4.142,2.959,5.357,3.508.251.112,1.5.04,1.817.139.139.04.621.779,1.136.945a15.767,15.767,0,0,0,4.452.284,5.522,5.522,0,0,1,3.065.6c-.178-.086,2.741,2.682,2.741,1.909a2.047,2.047,0,0,1-1.169.443c-.621,3.058,3.686.542,2.94.165.661.343,4.076,21.8,6.454,9.208.661-3.514,1.83-4.188,4.492-6.83.482-.482,3.64-3.382,4.393-2.973,1.711.945,1.486,5.661,2.385,6.414,1.883,1.572,1.453-3.481,2.741,1.982.429,1.784-.04,3.884.37,5.469.238.918,3.362,7.365,4.888,6.606,1.1-.561-1.889-4.492-2.391-5.146-.661-.839-3.336-5.4-.9-6.223.72-.244,2.345,1.9,2.642,2.226.106.126,1.321,2.266,1.249,2.206.152.1,1.869-1.546,1.982-1.632,2.6-2.477,1.612-3.124.112-5.978-.746-1.433-2.219-3.508.33-4.5,1.777-.661,1.163.178,1.949,1-.159-.159,6.883-3.653,7.6-4.538.456-.555,2.517-5.133,2.761-5.06-.231-.066-.931,0-1.143-.152.41.291,1.321-1.784-.363-1.784.033,0,1.447-.106,1.222.139.132-.145-2.153-3.25-2.14-3.349.2-1.407,1.876-1.433,2.728-2.087,1.321-1.024-3.475-.661-2.431-.152a19.051,19.051,0,0,1-1.737-1.612c0-.3,3.422-2.642,3.792-2.312.086.079-.879,2.18-.661,2.186,2.7.159,1.255-1.612,3.422-.211-1-.661.35,1.684.152,1.281,0,0,.991.211,1.176.793.139.456-.746,1.982-.3,2.642.185.284,2.517-.9,2.583-1,.753-1.182-.746-2.18-.9-3.243-.324-2.239-.568-.033.258-2.054a10.006,10.006,0,0,1,2.147-2.8c1.044-.832,1.189.363,2.332-.119s1.982-1.85,2.642-2.708a14.142,14.142,0,0,0,2.946-5.945c.31-1.242,1.1-2.735.423-3.8-1.321-2.087-1.566-.172-2.814-.092-.145,0,0-1.017,0-1.083a3.507,3.507,0,0,0-.661.661c.793-.178-1.321-1.731-1.394-1.235.126-.76,2.332-2.22,2.913-2.761,1.843-1.724,2.781-3.039,5.284-3.4.661-.086,6.2.046,6.011.37a1.984,1.984,0,0,1-.614.2c-.33.264,3.494-.258,3.3-.456-1.209-1.321,2.9-4.538,4.406-3.508-.192-.132-.126,1.678-.165,1.6.165.363,4.38-3.342,4.294-2.471-.132,1.275-3.686,4.234-4.888,5.285-1.572,1.361-2.338,1.169-3.025,3.3-.436,1.361-.3,5.648.746,6.8-.165-.178,5.483-6.718,5.529-6.764-.528.522-.126-2.431,0-1.982-.317-.951-1.354-.779.112-2.537A9.964,9.964,0,0,1,282.3,80.35a.858.858,0,0,1,.172.806c-.343-1.4,3.653-.119,3.514-.086.7-.185,1.724-1.533,2.556-2.021s4-1.262,4.261-1.513c2.12-2.021-1.176-1.9-1.632-3.4.178.581,3.025-.542,3.435-.786.6-.35-.211-.951.839-1.526-.6.33,4.307,3.851,5.232,2.953a1.1,1.1,0,0,0-.37-.509C300.5,74.179,301.268,72.97,301.116,72.845Z" fill="none" stroke="#6d6d6d" stroke-miterlimit="10" stroke-width="1"/>
        <path id="Path_595" data-name="Path 595" d="M195.709,45.312c.76-1.07-3.3-.482-2.391.324A2.38,2.38,0,0,0,195.709,45.312Z" fill="none" stroke="#6d6d6d" stroke-miterlimit="10" stroke-width="1"/>
        <path id="Path_596" data-name="Path 596" d="M191.449,45.827c-.383.165-.766.3-1.156.436-.509.568,2.576.476,2.774-.185C193.192,45.675,191.392,45.722,191.449,45.827Z" fill="none" stroke="#6d6d6d" stroke-miterlimit="10" stroke-width="1"/>
        <path id="Path_597" data-name="Path 597" d="M191.324,44.355a6.59,6.59,0,0,0,1.546-.6c-.324-.443-2.6.423-2.642.271A1.324,1.324,0,0,0,191.324,44.355Z" fill="none" stroke="#6d6d6d" stroke-miterlimit="10" stroke-width="1"/>
        <path id="Path_598" data-name="Path 598" d="M262.162,92.457c.528,1.321-1.05,5.093-.225,6.15-.561-.72,1.255.073,1.268.079s-.727-2.173-.661-2.266c.661-1.473,1.321-.786,1.546-1.077.4-.535-1.935-6.474-1.605-6.685C261.548,89.26,261.878,91.77,262.162,92.457Z" fill="none" stroke="#6d6d6d" stroke-miterlimit="10" stroke-width="1"/>
        <path id="Path_599" data-name="Path 599" d="M202.341,60.373a2.083,2.083,0,0,0,1.321-.33C204.178,59.006,201.218,60.182,202.341,60.373Z" fill="none" stroke="#6d6d6d" stroke-miterlimit="10" stroke-width="1"/>
        <path id="Path_600" data-name="Path 600" d="M210.27,60.479c-.053-.436-.964.126-.661.3S210.315,60.915,210.27,60.479Z" fill="none" stroke="#6d6d6d" stroke-miterlimit="10" stroke-width="1"/>
        <path id="Path_601" data-name="Path 601" d="M197.533,45.173l.753-.4c.244-.839-2.246.2-2.153.317A1.983,1.983,0,0,0,197.533,45.173Z" fill="none" stroke="#6d6d6d" stroke-miterlimit="10" stroke-width="1"/>
        <path id="Path_602" data-name="Path 602" d="M280.626,164.26c.053.33,2.147,2.081,2.444,1.863S280.573,163.949,280.626,164.26Z" fill="none" stroke="#6d6d6d" stroke-miterlimit="10" stroke-width="1"/>
        <path id="Path_603" data-name="Path 603" d="M76.656,120.848c-.469-.885.106,1.751.317,1.262A9.137,9.137,0,0,1,76.656,120.848Z" fill="none" stroke="#6d6d6d" stroke-miterlimit="10" stroke-width="1"/>
        <path id="Path_604" data-name="Path 604" d="M90.442,135.334c.621.139.826-.073.6-.621C90.6,134.3,90.237,135.129,90.442,135.334Z" fill="none" stroke="#6d6d6d" stroke-miterlimit="10" stroke-width="1"/>
        <path id="Path_605" data-name="Path 605" d="M233.144,147.555c0-.244-.661-.126-.443.218S233.144,147.8,233.144,147.555Z" fill="none" stroke="#6d6d6d" stroke-miterlimit="10" stroke-width="1"/>
        <path id="Path_606" data-name="Path 606" d="M238.3,152.826a2.115,2.115,0,0,0,1,.033c.443-.37-2.4-.859-2.319-.819a.76.76,0,0,1,.846-.661c-.74.5-7.207-1.678-6.777-.145C231.209,151.881,238.006,153.262,238.3,152.826Z" fill="none" stroke="#6d6d6d" stroke-miterlimit="10" stroke-width="1"/>
        <path id="Path_607" data-name="Path 607" d="M245.959,152.859c.661,0,.733-.086.271-.277a16.476,16.476,0,0,0-3.362.41C243.271,153.869,245.4,152.892,245.959,152.859Z" fill="none" stroke="#6d6d6d" stroke-miterlimit="10" stroke-width="1"/>
        <path id="Path_608" data-name="Path 608" d="M240.938,152.528c-.238.588-.819-.2-1.123.2-.621.832,2.134.813,2.371.238C242.332,152.636,241.062,152.258,240.938,152.528Z" fill="none" stroke="#6d6d6d" stroke-miterlimit="10" stroke-width="1"/>
        <path id="Path_609" data-name="Path 609" d="M233.619,144.278c1.883,1.922.964,3.58,4.069,3.745,2.583.132,2.728-1.922,4.406-4.023a9.135,9.135,0,0,1-1.1-2.437c.053-1,1.242-.859,1.447-1.526s-2.4-1.143-2.537-1.11c-.839.185-.416,1.665-1.856,1.552-.046,0-2.53,2.847-2.537,2.867C235.7,142.9,232.311,142.937,233.619,144.278Z" fill="none" stroke="#6d6d6d" stroke-miterlimit="10" stroke-width="1"/>
        <path id="Path_610" data-name="Path 610" d="M223.767,143.54c-.053.271.225,1.064.522.74S223.823,143.267,223.767,143.54Z" fill="none" stroke="#6d6d6d" stroke-miterlimit="10" stroke-width="1"/>
        <path id="Path_611" data-name="Path 611" d="M225,145.89c-.053.132.225.661.4.515S225.151,145.454,225,145.89Z" fill="none" stroke="#6d6d6d" stroke-miterlimit="10" stroke-width="1"/>
        <path id="Path_612" data-name="Path 612" d="M231.2,148.922c-.073-1.149.575-.846.568-1.585,0-.324-1.05-1.321-1.07-.707a3.573,3.573,0,0,1,.528.661c-.218.548-2.774-3.349-2.907-3.494-.594-.661-5.76-4.624-5.991-4.109-.165.383,3.963,6.328,4.512,7.081S231.44,152.568,231.2,148.922Z" fill="none" stroke="#6d6d6d" stroke-miterlimit="10" stroke-width="1"/>
        <path id="Path_613" data-name="Path 613" d="M243.739,154.352c0-.74-1.473-.343-1.546-.462S243.739,155.013,243.739,154.352Z" fill="none" stroke="#6d6d6d" stroke-miterlimit="10" stroke-width="1"/>
        <path id="Path_614" data-name="Path 614" d="M242.068,147.283c-.119.218,1.572,2.689.872,2.979.661-.271.073-3.012.72-2.7,1.229.6-.132,2.3,1.513,1.017-.872.661.046-4.518.713-3.052.086.2-3.719,1.2-2.768-.357,1.037-1.7,3.349.244,4.261-1.638-.548,1.136-2.814-.251-3.567.258C242.636,144.588,242.722,146.121,242.068,147.283Z" fill="none" stroke="#6d6d6d" stroke-miterlimit="10" stroke-width="1"/>
        <path id="Path_615" data-name="Path 615" d="M249.922,147.912a12.282,12.282,0,0,0,2.22.6C253.066,148.513,249.473,146.425,249.922,147.912Z" fill="none" stroke="#6d6d6d" stroke-miterlimit="10" stroke-width="1"/>
        <path id="Path_616" data-name="Path 616" d="M250.048,143.618c0-1.836-1.526,1.949-.126,1.671C250.847,145.1,250.048,143.585,250.048,143.618Z" fill="none" stroke="#6d6d6d" stroke-miterlimit="10" stroke-width="1"/>
        <path id="Path_617" data-name="Path 617" d="M247.244,153.863c.429-.568,1.869-.661,2.061-1.2.106-.317-2.213.707-2.431.733-.337.053-1.321.773-.661,1.123A1.143,1.143,0,0,0,247.244,153.863Z" fill="none" stroke="#6d6d6d" stroke-miterlimit="10" stroke-width="1"/>
        <path id="Path_618" data-name="Path 618" d="M248.209,147.964c.106.436.826.661,1.024.3S248.086,147.451,248.209,147.964Z" fill="none" stroke="#6d6d6d" stroke-miterlimit="10" stroke-width="1"/>
        <path id="Path_619" data-name="Path 619" d="M149.9,104.347c-.231.429.291,2.887,1.248,1.678C151.934,105.028,150.5,103.211,149.9,104.347Z" fill="none" stroke="#6d6d6d" stroke-miterlimit="10" stroke-width="1"/>
        <path id="Path_620" data-name="Path 620" d="M155.324,107.28c.178-.04-1.916-.185-1.731.37a6.284,6.284,0,0,0,1.836,1.176A13.141,13.141,0,0,1,156,107.34.529.529,0,0,0,155.324,107.28Z" fill="none" stroke="#6d6d6d" stroke-miterlimit="10" stroke-width="1"/>
        <line id="Line_25" data-name="Line 25" x2="288.099" transform="translate(6.438 281.207)" fill="none" stroke="#1c262a" stroke-linecap="round" stroke-linejoin="round" stroke-width="1"/>
        <path id="Path_621" data-name="Path 621" d="M35.5,257.994S18,227.265,22.041,219.45,36.4,225.692,36.4,225.692s-8.977-28.649-4.036-41.153,13.456,0,13.872,8.858-1.79,23.959-1.79,23.959,3.587-31.251,12.108-21.878S45.788,236.11,45.788,236.11,58.8,228.844,58.339,238.2s-15.7,17.71-15.7,17.71" fill="#2983c7"/>
        <path id="Path_622" data-name="Path 622" d="M35.655,252.268s-16.2-15.107-8.31-21.878,12.042,7.266,12.042,7.266-8.719-43.234,5.4-44.8,3.732,37.507,3.732,37.507,12.042-16.673,11.23-3.124-18.7,25.029-18.7,25.029" fill="none" stroke="#1c262a" stroke-miterlimit="10" stroke-width="1"/>
        <line id="Line_26" data-name="Line 26" x1="10.946" y1="11.857" transform="translate(32.662 237.656)" fill="none" stroke="#1c262a" stroke-miterlimit="10" stroke-width="1"/>
        <line id="Line_27" data-name="Line 27" y1="34.66" x2="2.959" transform="translate(41.329 215.771)" fill="none" stroke="#1c262a" stroke-miterlimit="10" stroke-width="1"/>
        <line id="Line_28" data-name="Line 28" y1="13" x2="9.809" transform="translate(40.867 234.921)" fill="none" stroke="#1c262a" stroke-miterlimit="10" stroke-width="1"/>
        <path id="Path_623" data-name="Path 623" d="M55.049,245.5H24.782l3.025,35.7H52.024Z" fill="#1c262a"/>
        <path id="Path_624" data-name="Path 624" d="M250.187,64.37,215.943,66.5a7.557,7.557,0,0,0-7.088,7.643l.172,13.76-9.955,1.057,10.034,5.179a7.558,7.558,0,0,0,7.661,7.452h.039l33.246-.608a7.558,7.558,0,0,0,7.412-7.266l.766-21.508a7.553,7.553,0,0,0-8.039-7.834Z" fill="#fff"/>
        <path id="Path_625" data-name="Path 625" d="M250.187,64.37,215.943,66.5a7.557,7.557,0,0,0-7.088,7.643l.172,13.76-9.955,1.057,10.034,5.179a7.558,7.558,0,0,0,7.661,7.452h.039l33.246-.608a7.558,7.558,0,0,0,7.412-7.266l.766-21.508a7.553,7.553,0,0,0-8.039-7.834Z" fill="none" stroke="#1c262a" stroke-miterlimit="10" stroke-width="1"/>
        <path id="Path_626" data-name="Path 626" d="M106.757,81.3,93.215,77.64l3.058-20.075a6.383,6.383,0,0,0-6.824-7.319L60.695,52.624a6.368,6.368,0,0,0-5.833,6.861v0l2.114,26.33a6.374,6.374,0,0,0,6.1,5.859l22.129.872a6.36,6.36,0,0,0,6.553-5.4l.575-3.759Z" fill="#fff"/>
        <path id="Path_627" data-name="Path 627" d="M106.757,81.3,93.215,77.64l3.058-20.075a6.383,6.383,0,0,0-6.824-7.319L60.695,52.624a6.368,6.368,0,0,0-5.833,6.861v0l2.114,26.33a6.374,6.374,0,0,0,6.1,5.859l22.129.872a6.36,6.36,0,0,0,6.553-5.4l.575-3.759Z" fill="none" stroke="#1c262a" stroke-miterlimit="10" stroke-width="1"/>
        <path id="Path_628" data-name="Path 628" d="M67.635,66.683h.588a.159.159,0,0,1,.165.153v8.812a.16.16,0,0,1-.145.172h-.608a.16.16,0,0,1-.172-.145.122.122,0,0,1,0-.027V71.683a.059.059,0,0,0-.051-.066h-4.15a.059.059,0,0,0-.066.051.038.038,0,0,0,0,.015v3.963a.159.159,0,0,1-.145.172h-.615a.159.159,0,0,1-.172-.145.122.122,0,0,1,0-.027v-8.8a.158.158,0,0,1,.152-.165h.608a.16.16,0,0,1,.172.145v3.92a.059.059,0,0,0,.051.066.038.038,0,0,0,.015,0H67.4a.059.059,0,0,0,.066-.051.038.038,0,0,0,0-.015v-3.9a.158.158,0,0,1,.152-.165h.02Z" fill="#1c262a"/>
        <path id="Path_629" data-name="Path 629" d="M74.861,74.147a.151.151,0,0,1,.193-.094.186.186,0,0,1,.032.015l.377.211c.092.053.132.132.079.218a2.55,2.55,0,0,1-2.424,1.427,2.411,2.411,0,0,1-2.444-1.632,5.09,5.09,0,0,1-.251-1.8,6.051,6.051,0,0,1,.119-1.513,2.471,2.471,0,0,1,2.523-1.869,2.438,2.438,0,0,1,2.609,2.246,6.873,6.873,0,0,1,.079,1.321.152.152,0,0,1-.137.166.137.137,0,0,1-.035,0H71.406a.059.059,0,0,0-.066.051.038.038,0,0,0,0,.015,4.163,4.163,0,0,0,.079.958,1.684,1.684,0,0,0,1.77,1.275,1.791,1.791,0,0,0,1.671-.991ZM71.446,71.14a3.671,3.671,0,0,0-.106.892.059.059,0,0,0,.051.066h3.371a.058.058,0,0,0,.059-.059v-.007a6.736,6.736,0,0,0-.073-.839,1.632,1.632,0,0,0-1.684-1.275,1.546,1.546,0,0,0-1.618,1.222" fill="#1c262a"/>
        <path id="Path_630" data-name="Path 630" d="M77.59,75.647v-8.8a.158.158,0,0,1,.152-.165h.608a.152.152,0,0,1,.165.138.122.122,0,0,1,0,.027v8.8a.152.152,0,0,1-.13.171.137.137,0,0,1-.035,0h-.588a.16.16,0,0,1-.172-.145.122.122,0,0,1,0-.027" fill="#1c262a"/>
        <path id="Path_631" data-name="Path 631" d="M80.622,75.647v-8.8a.158.158,0,0,1,.151-.165h.6a.16.16,0,0,1,.172.145v8.82a.158.158,0,0,1-.143.172h-.617a.158.158,0,0,1-.165-.152.067.067,0,0,1,0-.02" fill="#1c262a"/>
        <path id="Path_632" data-name="Path 632" d="M83.621,74.107a5.641,5.641,0,0,1-.185-1.605,5.926,5.926,0,0,1,.172-1.592,2.715,2.715,0,0,1,5.106,0,5.786,5.786,0,0,1,.178,1.6,5.639,5.639,0,0,1-.178,1.605,2.7,2.7,0,0,1-5.093,0Zm4.228-.271a6.1,6.1,0,0,0,.106-1.321,5.632,5.632,0,0,0-.106-1.321,1.744,1.744,0,0,0-3.362,0,8.284,8.284,0,0,0,0,2.642,1.744,1.744,0,0,0,3.362,0" fill="#1c262a"/>
        <path id="Path_633" data-name="Path 633" d="M53.211,128.233l.548,1.1,1.209.172-.879.859.211,1.2L53.21,131l-1.083.568.211-1.2-.879-.859,1.209-.172Z" fill="#fff"/>
        <path id="Path_634" data-name="Path 634" d="M56.733,127.8l.284.568.621.092-.449.436.106.621-.561-.291-.555.291.106-.621-.456-.436.628-.092Z" fill="#fff"/>
        <path id="Path_635" data-name="Path 635" d="M57.492,130.671l.277.568.628.086-.456.443.106.621-.555-.291-.561.291.106-.621-.449-.443.621-.086Z" fill="#fff"/>
        <path id="Path_636" data-name="Path 636" d="M55.625,132.547l.277.561.628.092-.449.443.106.621-.561-.3-.555.3.106-.621-.456-.443.628-.092Z" fill="#fff"/>
        <path id="Path_637" data-name="Path 637" d="M53.047,133.4l.277.561.628.092-.449.443.106.621-.561-.291-.555.291.106-.621-.456-.443.628-.092Z" fill="#fff"/>
      </g>
    </g>
    <path id="Path_638" data-name="Path 638" d="M222.083,85.468V76.876h1.02v8.592Zm1.02,0v-.924h1.452v.924Zm1.452,0a.223.223,0,0,1-.12-.03.182.182,0,0,1-.072-.09.635.635,0,0,1-.036-.15,1.505,1.505,0,0,1-.012-.2,1.335,1.335,0,0,1,.018-.24.314.314,0,0,1,.072-.156.191.191,0,0,1,.15-.06Zm0,0v-.924h1.788l-.492.408V79.468h1.02v6Zm0,0v-.924a.223.223,0,0,1,.12.03.182.182,0,0,1,.072.09.63.63,0,0,1,.036.144,1.371,1.371,0,0,1,.012.192,1.505,1.505,0,0,1-.012.2.635.635,0,0,1-.036.15.182.182,0,0,1-.072.09A.223.223,0,0,1,224.555,85.468Zm1.3,2.22V86.572h1.032v1.116Zm1.02-2.22v-.924h1.3v.924Zm1.3,0a.223.223,0,0,1-.12-.03.182.182,0,0,1-.072-.09.635.635,0,0,1-.036-.15,1.505,1.505,0,0,1-.012-.2,1.334,1.334,0,0,1,.018-.24.314.314,0,0,1,.072-.156.192.192,0,0,1,.15-.06Zm0,0v-.924h5.268l-.312.276V81.952a1.393,1.393,0,0,0-.486-1.164,2.347,2.347,0,0,0-1.47-.384q-.312,0-.882.054t-1.206.138l-.12-.828q.492-.12,1.074-.21a7.417,7.417,0,0,1,1.134-.09,4,4,0,0,1,1.584.288,2.252,2.252,0,0,1,1.032.84,2.43,2.43,0,0,1,.36,1.356v3.516Zm0,0v-.924a.223.223,0,0,1,.12.03.182.182,0,0,1,.072.09.63.63,0,0,1,.036.144,1.371,1.371,0,0,1,.012.192,1.505,1.505,0,0,1-.012.2.635.635,0,0,1-.036.15.182.182,0,0,1-.072.09A.223.223,0,0,1,228.167,85.468Zm6.852,2.7a3.213,3.213,0,0,1-.33-.018q-.174-.018-.342-.03l.1-.924q.168.012.318.03a2.211,2.211,0,0,0,.258.018,1.081,1.081,0,0,0,.888-.42,1.816,1.816,0,0,0,.336-1.164V79.468h1.032V85.66a2.875,2.875,0,0,1-.288,1.314,2.136,2.136,0,0,1-.8.882A2.2,2.2,0,0,1,235.019,88.168Zm2-2.7v-.924h1.536v.924Zm1.536,0a.223.223,0,0,1-.12-.03.182.182,0,0,1-.072-.09.635.635,0,0,1-.036-.15,1.505,1.505,0,0,1-.012-.2,1.334,1.334,0,0,1,.018-.24.314.314,0,0,1,.072-.156.192.192,0,0,1,.15-.06Zm0,0v-.924h6.516l-.7.5v-2.52a3.573,3.573,0,0,0-.186-1.284,1.148,1.148,0,0,0-.636-.66,3.167,3.167,0,0,0-1.218-.192,7.483,7.483,0,0,0-1,.066,2.988,2.988,0,0,0-.768.186l.624-.624q-.072.288-.144.726t-.12.936q-.048.5-.048.99t.048,1q.048.492.108.846t.1.5l-.972.276q-.048-.156-.12-.54t-.126-.924q-.054-.54-.054-1.152a10.713,10.713,0,0,1,.06-1.146q.06-.558.138-1.014t.15-.732a4.706,4.706,0,0,1,.846-.216,7.019,7.019,0,0,1,1.278-.108,4.249,4.249,0,0,1,1.7.3,2.012,2.012,0,0,1,1.02.972,4.058,4.058,0,0,1,.336,1.8v2.94Zm0,0v-.924a.223.223,0,0,1,.12.03.182.182,0,0,1,.072.09.63.63,0,0,1,.036.144A1.371,1.371,0,0,1,238.8,85a1.505,1.505,0,0,1-.012.2.635.635,0,0,1-.036.15.182.182,0,0,1-.072.09A.223.223,0,0,1,238.559,85.468Z" fill="#1a1818"/>
    <g id="Group_39" data-name="Group 39">
      <g id="Group_38" data-name="Group 38" clip-path="url(#clip-path)">
        <path id="Path_639" data-name="Path 639" d="M187.75,82.667a27.4,27.4,0,0,0-27.4-27.4h-9.539a27.4,27.4,0,0,0-27.4,27.4" fill="none" stroke="#1c262a" stroke-linecap="round" stroke-linejoin="round" stroke-width="3"/>
        <line id="Line_29" data-name="Line 29" y1="20.293" transform="translate(187.75 82.667)" fill="none" stroke="#1c262a" stroke-linecap="round" stroke-linejoin="round" stroke-width="6"/>
        <line id="Line_30" data-name="Line 30" y2="20.293" transform="translate(123.411 82.667)" fill="none" stroke="#1c262a" stroke-linecap="round" stroke-linejoin="round" stroke-width="6"/>
        <path id="Path_640" data-name="Path 640" d="M143.089,133.4s1.711,11.95,1.367,15.021-1.024,6.143-9.558,2.728S111,153.889,101.1,165.832,72.435,217.722,72.435,222.5,76.187,233.726,83,234.783s22.869-18.43,22.869-18.43,6.824,38.57,6.824,41.616-3.058,23.212-3.058,23.212h96.6l-3.759-24.917,6.83-54.959s28.332,38.57,34.475,40.3,15.7-1.367,18.093-8.535-1.367-14.678-6.15-20.141-34.812-53.592-40.294-58.024-20.821-4.783-26.284-3.415-14.678,3.415-17.069,2.048-2.385-14.334,0-20.141c.02.013-20.8,5.476-28.992.013" fill="#2983c7"/>
        <path id="Path_641" data-name="Path 641" d="M143.089,133.4s1.711,11.95,1.367,15.021-1.024,6.143-9.558,2.728S111,153.889,101.1,165.832,72.435,217.722,72.435,222.5,76.187,233.726,83,234.783s22.869-18.43,22.869-18.43,6.824,38.57,6.824,41.616-3.058,23.212-3.058,23.212h96.6l-3.759-24.917,6.83-54.959s28.332,38.57,34.475,40.3,15.7-1.367,18.093-8.535-1.367-14.678-6.15-20.141-34.812-53.592-40.294-58.024-20.821-4.783-26.284-3.415-14.678,3.415-17.069,2.048-2.385-14.334,0-20.141C172.1,133.4,151.28,138.868,143.089,133.4Z" fill="none" stroke="#1c262a" stroke-linecap="round" stroke-linejoin="round" stroke-width="1"/>
        <path id="Path_642" data-name="Path 642" d="M129.745,237.339a34.46,34.46,0,0,0,3.362,1.1" fill="none" stroke="#1c262a" stroke-linecap="round" stroke-linejoin="round" stroke-width="1"/>
        <path id="Path_643" data-name="Path 643" d="M112.128,215.441s1.519,13.264,14.017,20.213" fill="none" stroke="#1c262a" stroke-linecap="round" stroke-linejoin="round" stroke-width="1"/>
        <line id="Line_31" data-name="Line 31" x2="6.645" y2="9.71" transform="translate(151.002 176.593)" fill="none" stroke="#1c262a" stroke-linecap="round" stroke-linejoin="round" stroke-width="1"/>
        <line id="Line_32" data-name="Line 32" y1="3.66" x2="1.757" transform="translate(216.716 182.215)" fill="none" stroke="#1c262a" stroke-linecap="round" stroke-linejoin="round" stroke-width="1"/>
        <path id="Path_644" data-name="Path 644" d="M213.869,181.191l-4.558,20.141,5.6-11.685" fill="none" stroke="#1c262a" stroke-linecap="round" stroke-linejoin="round" stroke-width="1"/>
        <path id="Path_645" data-name="Path 645" d="M234.333,217.482s7.213-4.624,14.314-4.624" fill="none" stroke="#1c262a" stroke-linecap="round" stroke-linejoin="round" stroke-width="1"/>
        <path id="Path_646" data-name="Path 646" d="M219.651,231.334a98.356,98.356,0,0,0,13.073-8.468,29.253,29.253,0,0,1,20.808-5.892c6.81.733,10.5,9.2,10.675,17.677s-4.419,13.621-12.7,14.909-18.047-.548-24.117-2.021a80.121,80.121,0,0,0-9.763-1.843s-7.914-12.155,2.024-14.362" fill="#fff"/>
        <path id="Path_647" data-name="Path 647" d="M219.651,231.334a98.356,98.356,0,0,0,13.073-8.468,29.253,29.253,0,0,1,20.808-5.892c6.81.733,10.5,9.2,10.675,17.677s-4.419,13.621-12.7,14.909-18.047-.548-24.117-2.021a80.121,80.121,0,0,0-9.763-1.843S209.713,233.541,219.651,231.334Z" fill="none" stroke="#1c262a" stroke-linecap="round" stroke-linejoin="round" stroke-width="1"/>
        <path id="Path_648" data-name="Path 648" d="M264.21,234.653c-.178-8.475-3.864-16.943-10.675-17.677a29.253,29.253,0,0,0-20.808,5.892l-.925.707c7.927.271,23.952,3.508,21.442,25.643,7.189-1.726,11.138-6.713,10.966-14.565" fill="#2983c7"/>
        <path id="Path_649" data-name="Path 649" d="M264.21,234.653c-.178-8.475-3.864-16.943-10.675-17.677a29.253,29.253,0,0,0-20.808,5.892l-.925.707c7.927.271,23.952,3.508,21.442,25.643C260.433,247.492,264.382,242.505,264.21,234.653Z" fill="none" stroke="#1c262a" stroke-linecap="round" stroke-linejoin="round" stroke-width="1"/>
        <path id="Path_650" data-name="Path 650" d="M143.089,133.4s1.711,11.95,1.367,15.021c-.258,2.305-.707,4.624-4.512,4.175,5.443,8.9,21.25,29.785,36,1.321a7.948,7.948,0,0,1-3.845-.41c-2.385-1.367-2.385-14.334,0-20.141,0,.034-20.819,5.5-29.01.034" fill="#fff"/>
        <path id="Path_651" data-name="Path 651" d="M143.089,133.4s1.711,11.95,1.367,15.021c-.258,2.305-.707,4.624-4.512,4.175,5.443,8.9,21.25,29.785,36,1.321a7.948,7.948,0,0,1-3.845-.41c-2.385-1.367-2.385-14.334,0-20.141C172.1,133.4,151.28,138.868,143.089,133.4Z" fill="none" stroke="#1c262a" stroke-linecap="round" stroke-linejoin="round" stroke-width="1"/>
        <path id="Path_652" data-name="Path 652" d="M143.089,133.4s.443,3.1.832,6.553a30.248,30.248,0,0,0,12.815,3.488,24.748,24.748,0,0,0,13.945-4.036,24.716,24.716,0,0,1,1.42-6s-20.821,5.458-29.012-.005" fill="#1c262a"/>
        <path id="Path_653" data-name="Path 653" d="M143.089,133.4s.443,3.1.832,6.553a30.248,30.248,0,0,0,12.815,3.488,24.748,24.748,0,0,0,13.945-4.036,24.716,24.716,0,0,1,1.42-6S151.28,138.868,143.089,133.4Z" fill="none" stroke="#1c262a" stroke-linecap="round" stroke-linejoin="round" stroke-width="1"/>
        <path id="Path_654" data-name="Path 654" d="M123.387,92.094h0a5.129,5.129,0,0,1,5.129,5.129v14.143a5.129,5.129,0,0,1-5.129,5.129h0a5.129,5.129,0,0,1-5.129-5.129V97.223a5.129,5.129,0,0,1,5.129-5.129" fill="#1c262a"/>
        <rect id="Rectangle_89" data-name="Rectangle 89" width="10.259" height="24.401" rx="5.129" transform="translate(118.258 92.094)" fill="none" stroke="#1c262a" stroke-linecap="round" stroke-linejoin="round" stroke-width="1"/>
        <rect id="Rectangle_90" data-name="Rectangle 90" width="2.1" height="24.362" transform="translate(122.335 92.113)" fill="#fff"/>
        <rect id="Rectangle_91" data-name="Rectangle 91" width="2.1" height="24.362" transform="translate(122.335 92.113)" fill="none" stroke="#1c262a" stroke-linecap="round" stroke-linejoin="round" stroke-width="1"/>
        <path id="Path_655" data-name="Path 655" d="M187.938,92.094h0a5.129,5.129,0,0,1,5.129,5.129v14.143a5.129,5.129,0,0,1-5.129,5.129h0a5.129,5.129,0,0,1-5.129-5.129V97.223a5.129,5.129,0,0,1,5.129-5.129" fill="#1c262a"/>
        <rect id="Rectangle_92" data-name="Rectangle 92" width="10.259" height="24.401" rx="5.129" transform="translate(182.809 92.094)" fill="none" stroke="#1c262a" stroke-linecap="round" stroke-linejoin="round" stroke-width="1"/>
        <rect id="Rectangle_93" data-name="Rectangle 93" width="2.1" height="24.362" transform="translate(186.892 92.113)" fill="#fff"/>
        <rect id="Rectangle_94" data-name="Rectangle 94" width="2.1" height="24.362" transform="translate(186.892 92.113)" fill="none" stroke="#1c262a" stroke-linecap="round" stroke-linejoin="round" stroke-width="1"/>
        <path id="Path_656" data-name="Path 656" d="M107.258,111.362a4.815,4.815,0,0,0-3.825,2.55c-1.533,2.55-6.374,11.983-5.866,14.79s21.673,22.69,21.673,23.965-16.822,24.225-28.045,34.425S71.054,208.759,69.522,217.94s3.825,16.825,9.439,18.357,12.491-1.784,20.392-11.732,29.58-53.288,32.9-68.038c0,0,.76-6.606-2.3-10.457s-10.708-12.749-10.708-12.749,1.533-17.591.258-18.866-2.55,1.533-2.55,1.533-1.182-5.9-2.807-5.615c-1.777.317-2.292,2.55-2.292,2.55s-1.278-5.131-4.6-1.561" fill="#fff"/>
        <path id="Path_657" data-name="Path 657" d="M107.258,111.362a4.815,4.815,0,0,0-3.825,2.55c-1.533,2.55-6.374,11.983-5.866,14.79s21.673,22.69,21.673,23.965-16.822,24.225-28.045,34.425S71.054,208.759,69.522,217.94s3.825,16.825,9.439,18.357,12.491-1.784,20.392-11.732,29.58-53.288,32.9-68.038c0,0,.76-6.606-2.3-10.457s-10.708-12.749-10.708-12.749,1.533-17.591.258-18.866-2.55,1.533-2.55,1.533-1.182-5.9-2.807-5.615c-1.777.317-2.292,2.55-2.292,2.55S110.576,107.792,107.258,111.362Z" fill="none" stroke="#1c262a" stroke-linecap="round" stroke-linejoin="round" stroke-width="1"/>
        <path id="Path_658" data-name="Path 658" d="M116.95,115.953s-3.66,14.645-3.3,17.115" fill="none" stroke="#1c262a" stroke-linecap="round" stroke-linejoin="round" stroke-width="1"/>
        <path id="Path_659" data-name="Path 659" d="M111.85,112.888s-3.878,14.242-4.373,16.224a4.885,4.885,0,0,0,.621,3.838" fill="none" stroke="#1c262a" stroke-linecap="round" stroke-linejoin="round" stroke-width="1"/>
        <path id="Path_660" data-name="Path 660" d="M107.26,111.362s-5.476,15.272-5.476,16.884a8.4,8.4,0,0,0,1.242,3.587" fill="none" stroke="#1c262a" stroke-linecap="round" stroke-linejoin="round" stroke-width="1"/>
        <path id="Path_661" data-name="Path 661" d="M102.385,175.18a134.466,134.466,0,0,1-11.19,11.89c-11.23,10.193-20.141,21.667-21.673,30.848s3.825,16.825,9.439,18.357,12.491-1.784,20.392-11.732c4.551-5.721,13.654-22.5,21.2-38.531-11.5-3.051-16.239-7.807-18.168-10.832" fill="#2983c7"/>
        <path id="Path_662" data-name="Path 662" d="M102.385,175.18a134.466,134.466,0,0,1-11.19,11.89c-11.23,10.193-20.141,21.667-21.673,30.848s3.825,16.825,9.439,18.357,12.491-1.784,20.392-11.732c4.551-5.721,13.654-22.5,21.2-38.531C109.058,182.961,104.314,178.205,102.385,175.18Z" fill="none" stroke="#1c262a" stroke-linecap="round" stroke-linejoin="round" stroke-width="1"/>
        <path id="Path_663" data-name="Path 663" d="M128.292,79.45s-.443,35.492.892,42.151,13.31,17.967,27.083,18.41,24.626-12.2,25.954-18.859,0-33.273-.218-43.921-15.53-20.187-31.047-17.749S127.407,71.015,128.292,79.45" fill="#fff"/>
        <path id="Path_664" data-name="Path 664" d="M128.292,79.45s-.443,35.492.892,42.151,13.31,17.967,27.083,18.41,24.626-12.2,25.954-18.859,0-33.273-.218-43.921-15.53-20.187-31.047-17.749S127.407,71.015,128.292,79.45Z" fill="none" stroke="#1c262a" stroke-linecap="round" stroke-linejoin="round" stroke-width="1"/>
        <path id="Path_665" data-name="Path 665" d="M162.014,93.87s.885,6.209,1.777,7.537,2.438,3.111-.661,4.439-5.549-.225-5.549-1.777" fill="none" stroke="#1c262a" stroke-linecap="round" stroke-linejoin="round" stroke-width="1"/>
        <path id="Path_666" data-name="Path 666" d="M165.344,115.828s-11.983,1.533-17.307-3.752c0,0,1.321,8.211,5.324,9.545s11.983-5.793,11.983-5.793" fill="#fff"/>
        <path id="Path_667" data-name="Path 667" d="M165.344,115.828s-11.983,1.533-17.307-3.752c0,0,1.321,8.211,5.324,9.545S165.344,115.828,165.344,115.828Z" fill="none" stroke="#1c262a" stroke-linecap="round" stroke-linejoin="round" stroke-width="1"/>
        <line id="Line_33" data-name="Line 33" x2="1.11" y2="3.547" transform="translate(149.813 94.088)" fill="none" stroke="#1c262a" stroke-linecap="round" stroke-linejoin="round" stroke-width="1"/>
        <path id="Path_668" data-name="Path 668" d="M144.932,97.418s3.1,1.982,8.871.218" fill="none" stroke="#1c262a" stroke-linecap="round" stroke-linejoin="round" stroke-width="2"/>
        <line id="Line_34" data-name="Line 34" x2="1.11" y2="3.547" transform="translate(171.553 94.088)" fill="none" stroke="#1c262a" stroke-linecap="round" stroke-linejoin="round" stroke-width="1"/>
        <path id="Path_669" data-name="Path 669" d="M166.671,97.418s3.1,1.982,8.878.218" fill="none" stroke="#1c262a" stroke-linecap="round" stroke-linejoin="round" stroke-width="2"/>
        <path id="Path_670" data-name="Path 670" d="M143.379,87.879a11.637,11.637,0,0,1,9.314-4.657" fill="none" stroke="#1c262a" stroke-linecap="round" stroke-linejoin="round" stroke-width="2"/>
        <path id="Path_671" data-name="Path 671" d="M164.676,82.773s6.434-1.77,10.873,3.3" fill="none" stroke="#1c262a" stroke-linecap="round" stroke-linejoin="round" stroke-width="2"/>
        <path id="Path_672" data-name="Path 672" d="M156.386,92.258h0a6.13,6.13,0,0,1-.079,6.328l-.126.2a10.325,10.325,0,0,1-8.766,4.868h-1.387a8.051,8.051,0,0,1-6.962-4.008,6.678,6.678,0,0,1,5.351-10.021l6.315-.4A6.109,6.109,0,0,1,156.386,92.258Z" fill="none" stroke="#1c262a" stroke-linecap="round" stroke-linejoin="round" stroke-width="1"/>
        <path id="Path_673" data-name="Path 673" d="M163.652,92.258h0a6.13,6.13,0,0,0,.079,6.328l.125.2a10.325,10.325,0,0,0,8.766,4.868h1.387a8.051,8.051,0,0,0,6.962-4.008,6.678,6.678,0,0,0-5.351-10.021l-6.308-.4A6.122,6.122,0,0,0,163.652,92.258Z" fill="none" stroke="#1c262a" stroke-linecap="round" stroke-linejoin="round" stroke-width="1"/>
        <path id="Path_674" data-name="Path 674" d="M157.132,93.421s1.982-1.552,5.767,0" fill="none" stroke="#1c262a" stroke-linecap="round" stroke-linejoin="round" stroke-width="1"/>
        <line id="Line_35" data-name="Line 35" x2="10.873" transform="translate(154.47 90.099)" fill="none" stroke="#1c262a" stroke-linecap="round" stroke-linejoin="round" stroke-width="1"/>
        <line id="Line_36" data-name="Line 36" x1="10.377" transform="translate(128.292 93.692)" fill="none" stroke="#1c262a" stroke-linecap="round" stroke-linejoin="round" stroke-width="1"/>
        <path id="Path_675" data-name="Path 675" d="M168.006,70.13s5.747,18.456,14.473,23.225c-.192-6.328-.416-12.273-.5-16.124-.225-10.648-15.53-20.187-31.047-17.749S127.416,71.015,128.3,79.451c0,0-.073,5.793-.066,13.145,7.5-3.231,27.22-12.227,39.771-22.466" fill="#1c262a"/>
      </g>
    </g>
    <g id="Group_41" data-name="Group 41">
      <g id="Group_40" data-name="Group 40" clip-path="url(#clip-path-5)">
        <path id="Path_676" data-name="Path 676" d="M126.753,87.747s29.1-12.2,44.826-27.691" fill="none" stroke="#606060" stroke-linecap="round" stroke-linejoin="round" stroke-width="1"/>
        <path id="Path_677" data-name="Path 677" d="M124.4,77.888s30.512-7.042,48.116-25.584" fill="none" stroke="#606060" stroke-linecap="round" stroke-linejoin="round" stroke-width="1"/>
        <path id="Path_678" data-name="Path 678" d="M173.686,62.163s.469,11.969,13.145,23" fill="none" stroke="#606060" stroke-linecap="round" stroke-linejoin="round" stroke-width="1"/>
      </g>
    </g>
    <g id="Group_43" data-name="Group 43">
      <g id="Group_42" data-name="Group 42" clip-path="url(#clip-path)">
        <path id="Path_680" data-name="Path 680" d="M170.384,136.643s0,8.046-6.031,20.867-6.289,25.643-2.266,35.2,14.836,13.33,26.423,9.056,13.073-23.384,11.818-34.951-12.551-25.141-15.087-31.932-4.274-10.3-4.274-10.3-6.54,9.05-10.569,11.058Z" fill="#1c262a"/>
      </g>
    </g>
    <g id="Group_45" data-name="Group 45">
      <g id="Group_44" data-name="Group 44" clip-path="url(#clip-path-7)">
        <path id="Path_681" data-name="Path 681" d="M174.625,127.646a63.154,63.154,0,0,1-4.221,32.368c-7.042,16.9-1.645,34.97,6.573,38.722s16.19,2.352,20.18-2.814" fill="none" stroke="#606060" stroke-linecap="round" stroke-linejoin="round" stroke-width="1"/>
        <path id="Path_682" data-name="Path 682" d="M177.676,123.894s7.98,18.773,4.7,32.857-1.876,31.952,7.98,35.439,15.49-3.486,15.49-3.486" fill="none" stroke="#606060" stroke-linecap="round" stroke-linejoin="round" stroke-width="1"/>
        <path id="Path_683" data-name="Path 683" d="M187.3,136.094s6.8,25.815,6.8,39.191,8.217,11.269,10.331,4.7" fill="none" stroke="#606060" stroke-linecap="round" stroke-linejoin="round" stroke-width="1"/>
      </g>
    </g>
    <g id="Group_47" data-name="Group 47">
      <g id="Group_46" data-name="Group 46" clip-path="url(#clip-path)">
        <path id="Path_685" data-name="Path 685" d="M170.384,136.643s0,8.046-6.031,20.867-6.289,25.643-2.266,35.2,14.836,13.33,26.423,9.056,13.073-23.384,11.818-34.951-12.551-25.141-15.087-31.932-4.274-10.3-4.274-10.3-6.54,9.05-10.569,11.058Z" fill="none" stroke="#1c262a" stroke-linecap="round" stroke-linejoin="round" stroke-width="1"/>
        <path id="Path_686" data-name="Path 686" d="M160.282,206.152l39.368,1.588a5.191,5.191,0,0,1,4.977,5.395l-2.247,55.7a5.19,5.19,0,0,1-5.4,4.976l-39.368-1.588a5.19,5.19,0,0,1-4.977-5.4l2.247-55.7a5.19,5.19,0,0,1,5.4-4.977" fill="#1c262a"/>
        <path id="Path_687" data-name="Path 687" d="M160.282,206.152l39.368,1.588a5.191,5.191,0,0,1,4.977,5.395l-2.247,55.7a5.19,5.19,0,0,1-5.4,4.976l-39.368-1.588a5.19,5.19,0,0,1-4.977-5.4l2.247-55.7A5.19,5.19,0,0,1,160.282,206.152Z" fill="none" stroke="#1c262a" stroke-linecap="round" stroke-linejoin="round" stroke-width="1"/>
        <path id="Path_688" data-name="Path 688" d="M223.257,231.764s-21.957-6.83-25.7-7.98-25.319,14.962-26.178,17.261,2.3,2.305,2.3,2.305-1.321,2.3.661,3.448a11.873,11.873,0,0,0,1.982,1.077s-1.149,2.589,1.149,3.455,5.469-1.44,5.469-1.44l5.179-3.739s-6.223,7.616-4.9,9.208c1.83,2.18,3-.159,3-.159l7.154-8.475,7.187-3.455a33.3,33.3,0,0,0,14.962,3.739c9.208.284,11.23-3.739,11.23-3.739" fill="#fff"/>
        <path id="Path_689" data-name="Path 689" d="M223.257,231.764s-21.957-6.83-25.7-7.98-25.319,14.962-26.178,17.261,2.3,2.305,2.3,2.305-1.321,2.3.661,3.448a11.873,11.873,0,0,0,1.982,1.077s-1.149,2.589,1.149,3.455,5.469-1.44,5.469-1.44l5.179-3.739s-6.223,7.616-4.9,9.208c1.83,2.18,3-.159,3-.159l7.154-8.475,7.187-3.455a33.3,33.3,0,0,0,14.962,3.739c9.208.284,11.23-3.739,11.23-3.739" fill="none" stroke="#1c262a" stroke-linecap="round" stroke-linejoin="round" stroke-width="1"/>
        <path id="Path_690" data-name="Path 690" d="M176.368,247.875s8.065-5.536,10.074-7.537,8.515-6.183,10.523-6.183" fill="none" stroke="#1c262a" stroke-linecap="round" stroke-linejoin="round" stroke-width="1"/>
        <path id="Path_691" data-name="Path 691" d="M188.166,246.174s3.963-4.479,5.456-5.146,3.673-1.671,3.673-1.671" fill="none" stroke="#1c262a" stroke-linecap="round" stroke-linejoin="round" stroke-width="1"/>
        <path id="Path_692" data-name="Path 692" d="M173.68,243.35s11.23-7.927,15.074-10.259a54.338,54.338,0,0,1,7.18-3.679" fill="none" stroke="#1c262a" stroke-linecap="round" stroke-linejoin="round" stroke-width="1"/>
      </g>
    </g>
  </g>
</svg>
